<svg xmlns="http://www.w3.org/2000/svg" width="36" height="36" viewBox="0 0 36 36">
    <g fill="none" fill-rule="evenodd">
        <g>
            <g>
                <g>
                    <g transform="translate(-264 -1500) translate(0 1478) translate(160 22) translate(104)">
                        <circle cx="18" cy="18" r="17.5" stroke="#111" stroke-opacity=".08"/>
                        <g fill="#111">
                            <path d="M11.914 10c0 1.057-.857 1.914-1.914 1.914S8.086 11.057 8.086 10 8.943 8.086 10 8.086s1.914.857 1.914 1.914z" transform="translate(8 8)"/>
                            <path d="M14.476 6.613c-.092-.249-.238-.475-.43-.66-.184-.19-.41-.337-.66-.43-.202-.078-.506-.171-1.066-.197-.605-.028-.787-.033-2.32-.033s-1.715.005-2.32.033c-.56.026-.864.12-1.067.198-.249.092-.475.238-.66.43-.19.184-.337.41-.43.66-.078.202-.172.506-.197 1.066-.028.605-.034.787-.034 2.32s.006 1.715.034 2.32c.025.56.119.864.198 1.067.092.25.238.475.43.66.184.19.41.337.66.43.202.078.506.172 1.066.197.605.028.786.034 2.32.034 1.533 0 1.715-.006 2.32-.034.56-.025.864-.119 1.067-.198.5-.193.896-.589 1.09-1.09.078-.202.171-.506.197-1.065.028-.606.033-.788.033-2.32 0-1.534-.005-1.716-.033-2.321-.025-.56-.119-.864-.198-1.067zM10 12.95c-1.629 0-2.949-1.32-2.949-2.949 0-1.629 1.32-2.949 2.949-2.949 1.628 0 2.949 1.32 2.949 2.949 0 1.629-1.32 2.949-2.949 2.949zm3.065-5.325c-.38 0-.689-.309-.689-.69 0-.38.309-.688.69-.688.38 0 .688.308.688.689 0 .38-.308.689-.689.689z" transform="translate(8 8)"/>
                            <path d="M10 0C4.478 0 0 4.478 0 10s4.478 10 10 10 10-4.478 10-10S15.522 0 10 0zm5.708 12.367c-.028.612-.125 1.029-.267 1.394-.299.772-.908 1.381-1.68 1.68-.365.142-.782.239-1.393.267-.613.027-.808.034-2.368.034-1.56 0-1.755-.007-2.367-.034-.612-.028-1.029-.125-1.394-.267-.383-.145-.73-.37-1.017-.663-.292-.286-.518-.634-.663-1.017-.141-.365-.239-.782-.266-1.393-.029-.613-.035-.809-.035-2.368 0-1.56.006-1.755.034-2.367.028-.612.125-1.029.267-1.394.144-.383.37-.73.663-1.017.286-.292.634-.518 1.017-.663.365-.142.782-.239 1.394-.267.612-.027.808-.034 2.367-.034 1.56 0 1.755.007 2.367.035.612.027 1.029.124 1.394.266.383.144.73.37 1.017.663.292.287.519.634.663 1.017.142.365.239.782.267 1.394.028.612.034.808.034 2.367 0 1.56-.006 1.755-.034 2.367z" transform="translate(8 8)"/>
                        </g>
                    </g>
                </g>
            </g>
        </g>
    </g>
</svg>
