<svg xmlns="http://www.w3.org/2000/svg" width="48" height="36" viewBox="0 0 48 36">
    <g fill="none" fill-rule="evenodd">
        <g>
            <g>
                <g transform="translate(-80 -1467) translate(20 1467) translate(60)">
                    <rect width="47" height="35" x=".5" y=".5" stroke="#111" stroke-opacity=".08" rx="4"/>
                    <g>
                        <path fill="#EB001B" d="M7 14c3.866 0 7-3.134 7-7s-3.134-7-7-7-7 3.134-7 7 3.134 7 7 7z" transform="translate(13 11)"/>
                        <path fill="#F79E1B" d="M15 14c3.866 0 7-3.134 7-7s-3.134-7-7-7-7 3.134-7 7 3.134 7 7 7z" transform="translate(13 11)"/>
                        <path fill="#FF5F00" d="M11 1.255C12.813 2.52 14 4.62 14 7s-1.187 4.48-3 5.745C9.187 11.48 8 9.38 8 7s1.187-4.48 3-5.745z" transform="translate(13 11)"/>
                    </g>
                </g>
            </g>
        </g>
    </g>
</svg>
