<svg width="48" height="48" viewBox="0 0 48 48" fill="none" xmlns="http://www.w3.org/2000/svg">
<path d="M46.2958 16.5714C46.2958 16.098 46.0118 15.6246 45.6331 15.2459C45.2544 14.9619 44.6864 14.8672 44.213 14.9619C44.1183 15.0566 35.3136 17.5181 27.8343 14.9619C19.4083 12.1217 8.2367 14.7726 7.76333 14.8672C7.00593 15.0566 6.53256 15.7193 6.53256 16.4767L6.62724 36.9264C6.62724 37.3998 6.91126 37.8731 7.28996 38.2518C7.66866 38.5358 8.2367 38.7252 8.6154 38.5359C8.71008 38.4412 19.2189 35.885 26.7929 38.4412C29.6331 39.3879 32.6627 39.7666 35.4083 39.7666C40.6154 39.7666 44.8757 38.5358 45.0651 38.4412C45.7278 38.2518 46.2012 37.5891 46.2012 36.8317L46.2958 16.5714Z" fill="#C3F4C9"/>
<path d="M41.6568 13.9205C41.5621 13.9205 41.5621 13.9205 41.4675 13.9205C40.8994 14.0152 40.3314 14.2045 39.7633 14.2045C39.0059 14.2992 38.2485 14.3939 37.3964 14.3939C37.2071 14.3939 36.9231 14.3939 36.7337 14.3939C36.5444 14.3939 36.4497 14.3939 36.2604 14.3939H36.1657C36.071 14.2045 35.787 14.2992 35.5976 14.2992C35.0296 14.2992 34.5562 14.2992 33.9882 14.2045C33.7988 14.2045 33.6095 14.2045 33.4201 14.2045C33.2308 14.2045 33.0414 14.2045 32.7574 14.1099C32.6627 14.1099 32.4734 14.0152 32.3787 14.0152C32.1894 14.0152 32 13.9205 31.8107 13.9205C31.3373 13.8258 30.8639 13.7312 30.3905 13.6365C30.0118 13.5418 29.5385 13.4471 29.1598 13.3525C28.8757 13.2578 28.5917 13.2578 28.3077 13.0684C28.1184 12.9738 27.8343 12.8791 27.5503 12.7844C27.0769 12.6897 26.6982 12.5004 26.2249 12.4057C26.1302 12.4057 25.9408 12.311 25.8462 12.311C25.4675 12.2164 25.0888 12.1217 24.7101 12.027C23.4793 11.8377 22.2485 11.743 20.9231 11.6483H19.8817C19.0296 11.6483 18.0829 11.6483 17.2308 11.6483C16.5681 11.6483 15.8107 11.743 15.1479 11.8377C14.5799 11.8377 14.1065 11.9323 13.5385 12.027H13.4438C13.1598 12.027 12.8758 12.1217 12.4971 12.1217C12.3077 12.1217 12.1184 12.2164 11.929 12.2164C11.1716 12.311 10.3196 12.5004 9.56215 12.5951C9.18346 12.6897 8.80476 12.7844 8.52073 12.8791C8.33139 12.8791 8.14204 12.9738 7.95269 12.9738L7.57399 13.0684C7.38464 13.0684 7.28997 13.1631 7.10062 13.1631C6.81659 13.2578 6.53257 13.4471 6.34322 13.6365C5.86985 14.0152 5.49115 14.4885 5.20713 15.0566C5.11245 15.3406 5.01778 15.7193 4.9231 16.0033C4.9231 16.1927 4.9231 16.382 4.9231 16.4767V16.8554C4.9231 17.2341 4.9231 17.6128 4.9231 17.9915C4.9231 18.3702 4.9231 18.7489 4.9231 19.0329C5.01778 19.4116 4.9231 19.7903 4.9231 20.169C4.9231 20.453 4.9231 20.6424 4.9231 20.9264C4.9231 21.0211 4.9231 21.2104 4.9231 21.3051C4.9231 21.7785 4.9231 22.2519 4.9231 22.6306C4.9231 23.0093 4.9231 23.388 4.82843 23.672C4.82843 23.7667 4.82843 23.8613 4.82843 23.956C4.82843 24.0507 4.82843 24.0507 4.82843 24.1454L4.9231 24.0507C4.9231 24.1453 4.9231 24.24 4.9231 24.24C4.9231 24.8081 4.9231 25.3761 4.9231 25.9442C4.9231 26.2282 4.9231 26.5122 4.9231 26.7962C4.9231 26.8909 4.9231 26.8909 4.9231 26.9856C4.82843 27.3643 4.82843 27.743 4.9231 28.1217C4.9231 28.2163 4.9231 28.4057 4.9231 28.595C4.9231 28.6897 4.9231 28.7844 4.9231 28.9737C4.9231 29.7311 5.01778 30.3939 5.01778 31.1513C5.01778 31.6246 5.11245 32.098 5.01778 32.5714C5.01778 32.666 5.01778 32.666 5.01778 32.7607C5.01778 33.4234 5.01778 34.0862 5.01778 34.7489C5.01778 35.4116 5.01778 36.169 5.11245 36.8317C5.11245 37.4944 5.3018 38.0625 5.58583 38.6305C5.77517 38.9146 5.96452 39.1039 6.15387 39.2933C6.91127 39.8613 7.76334 40.0507 8.71008 39.8613C9.18345 39.7666 9.65683 39.672 10.1302 39.5773C10.3195 39.4826 10.6982 39.4826 10.8876 39.3879C11.2663 39.2933 11.5503 39.1986 11.929 39.1986C12.213 39.1986 12.4971 39.1039 12.8758 39.1039C14.0119 39.0092 15.0533 38.8199 16.284 38.7252C16.5681 38.7252 16.9468 38.6305 17.2308 38.7252C17.4201 38.7252 17.6095 38.7252 17.7042 38.6305C17.7988 38.5359 17.9882 38.5359 18.2722 38.5359C18.1775 38.5359 18.1775 38.6305 18.0829 38.6305C18.5562 38.7252 18.9349 38.7252 19.3136 38.5359H19.4083H19.3136C19.3136 38.5359 19.3136 38.6305 19.503 38.6305C19.9763 38.6305 20.355 38.6305 20.8284 38.6305C21.0178 38.6305 21.2071 38.6305 21.3965 38.7252C21.8698 38.8199 22.3432 38.9146 22.8166 38.9146C23.1006 38.9146 23.3846 38.9146 23.574 39.0092C23.574 39.0092 23.6687 39.0092 23.7633 39.0092C24.3314 39.1039 24.8994 39.1986 25.4675 39.3879C25.8462 39.4826 26.1302 39.5773 26.5089 39.672C26.9823 39.8613 27.4556 39.956 27.929 40.0507C28.213 40.1453 28.4024 40.1453 28.6864 40.24C28.9704 40.3347 29.1598 40.3347 29.4438 40.3347C29.5385 40.3347 29.7278 40.3347 29.9172 40.4294C30.1065 40.4294 30.1065 40.524 30.0118 40.524C30.2012 40.524 30.2959 40.524 30.4852 40.524L30.5799 40.6187C30.5799 40.6187 30.6746 40.7134 30.7692 40.7134C30.9586 40.7134 31.2426 40.7134 31.3373 40.7134L31.2426 40.6187H31.3373C31.3373 40.6187 31.3373 40.6187 31.3373 40.7134C31.6213 40.7134 32 40.7134 32.3787 40.808C32.284 40.808 32.284 40.9027 32.1894 40.9027C32.0947 40.9027 32 40.9027 32 40.9027H31.9053C31.9053 40.9027 31.9053 40.9027 32 40.9027L32.5681 40.9974H32.6627C33.0414 41.0921 33.4201 40.9974 33.7988 41.0921C33.7988 41.0921 33.8935 41.0921 33.9882 41.0921C34.2722 41.0921 34.5562 40.9974 34.8402 40.9974C34.9349 40.9974 35.0296 40.9974 35.2189 40.9974C35.3136 40.9974 35.503 40.9974 35.5976 40.9974C35.8817 40.9974 36.1657 40.9974 36.4497 40.9974C36.9231 40.9974 37.3018 40.9974 37.5858 40.808C37.6805 40.7134 37.8698 40.7134 38.0592 40.7134C38.1538 40.7134 38.3432 40.7134 38.5325 40.7134C38.6272 40.7134 38.7219 40.7134 38.7219 40.6187C38.8166 40.524 38.8166 40.524 38.9112 40.6187C39.1006 40.7134 39.574 40.7134 39.6686 40.808C39.6686 40.808 39.9527 40.8081 40.142 40.7134H39.858C40.0473 40.7134 40.2367 40.6187 40.5207 40.6187C40.6154 40.6187 40.8047 40.6187 40.8047 40.6187C40.8994 40.6187 40.8047 40.7134 40.8047 40.7134C41.4675 40.7134 42.0355 40.524 42.6035 40.4294C42.6982 40.4294 42.6982 40.4294 42.7929 40.4294C42.9822 40.4294 42.9822 40.3347 42.9822 40.24H42.8876V40.1453C42.9822 40.1453 42.9822 40.1453 43.0769 40.1453C43.1716 40.1453 43.2663 40.1453 43.2663 40.0507C43.2663 39.956 43.4556 39.956 43.5503 39.956C43.645 39.956 43.7396 39.956 43.929 39.956C44.0237 39.956 44.1183 39.8613 44.0237 39.8613C43.929 39.8613 44.0237 39.7666 44.1183 39.7666C44.213 39.7666 44.3077 39.7666 44.3077 39.7666C44.4024 39.7666 44.497 39.7666 44.6864 39.7666C44.6864 39.7666 44.8757 39.672 44.9704 39.672H45.0651C45.2544 39.5773 45.4438 39.5773 45.4438 39.672C45.4438 39.7666 45.5385 39.7666 45.7278 39.672C46.1065 39.4826 46.4852 39.1039 46.7692 38.7252C46.8639 38.6305 46.9586 38.4412 46.9586 38.3465C46.9586 38.1572 47.0532 37.9678 47.1479 37.6838C47.2426 37.3998 47.2426 37.2104 47.3373 37.0211C47.3373 36.737 47.3373 36.6424 47.3373 36.6424C47.3373 36.6424 47.3373 36.6424 47.2426 36.6424C47.2426 36.453 47.2426 36.3584 47.2426 36.169C47.2426 35.9797 47.3373 36.2637 47.3373 36.169C47.3373 36.0743 47.3373 35.885 47.3373 35.6956C47.2426 35.4116 47.3373 35.2223 47.3373 34.9382C47.3373 35.0329 47.3373 35.0329 47.4319 35.1276C47.4319 34.9382 47.4319 34.7489 47.4319 34.6542C47.4319 34.5595 47.5266 34.3702 47.5266 34.2755C47.5266 34.1808 47.4319 34.0862 47.4319 33.8968C47.5266 33.8968 47.5266 33.8968 47.6213 33.8968C47.716 33.1394 47.716 33.1394 47.6213 32.7607C47.5266 32.9501 47.5266 33.2341 47.5266 33.5181C47.4319 33.6128 47.4319 33.4234 47.4319 33.3288V33.2341C47.4319 33.1394 47.4319 33.0447 47.4319 32.8554C47.4319 32.6661 47.4319 32.4767 47.4319 32.2873C47.5266 32.1927 47.5266 32.2874 47.5266 32.382C47.5266 32.4767 47.6213 32.4767 47.6213 32.5714V32.2873C47.6213 32.2873 47.716 32.2874 47.716 32.1927C47.716 32.098 47.716 32.0033 47.716 31.9087C47.716 31.814 47.716 31.7193 47.6213 31.7193H47.5266C47.4319 31.6246 47.4319 31.53 47.3373 31.3406C47.3373 31.2459 47.3373 31.1513 47.3373 30.9619H47.4319C47.4319 30.8672 47.4319 30.6779 47.5266 30.5832C47.4319 30.5832 47.4319 30.6779 47.4319 30.3939C47.4319 30.0152 47.4319 29.7311 47.4319 29.3524C47.4319 29.0684 47.4319 28.8791 47.5266 28.595C47.6213 28.6897 47.6213 28.6897 47.6213 28.7844C47.6213 28.595 47.716 28.5004 47.6213 28.311C47.6213 28.311 47.6213 28.2164 47.5266 28.2164C47.5266 28.311 47.5266 28.311 47.5266 28.4057C47.5266 28.4057 47.5266 28.4057 47.5266 28.5004C47.4319 28.5004 47.4319 28.311 47.4319 28.1217C47.4319 27.2696 47.4319 26.4175 47.5266 25.6601C47.5266 24.524 47.5266 23.388 47.6213 22.2519C47.6213 21.9678 47.6213 21.6838 47.5266 21.3998C47.5266 21.3051 47.5266 21.2104 47.5266 21.1158C47.5266 20.9264 47.5266 20.6424 47.5266 20.453C47.5266 20.3584 47.5266 20.169 47.5266 20.0743C47.5266 20.0743 47.5266 19.9797 47.4319 19.9797V20.0743C47.4319 20.3584 47.4319 20.7371 47.4319 21.0211C47.4319 21.4945 47.3373 22.0625 47.4319 22.5359C47.4319 22.6306 47.4319 22.7252 47.4319 22.7252C47.4319 22.9146 47.4319 23.0093 47.4319 23.1986C47.4319 23.2933 47.4319 23.4826 47.4319 23.5773C47.4319 24.0507 47.4319 24.524 47.3373 25.0921C47.3373 25.3761 47.3373 25.6601 47.3373 25.7548C47.2426 26.0388 47.3373 26.2282 47.3373 26.5122C47.3373 26.6069 47.3373 26.7016 47.3373 26.7016C47.2426 26.7962 47.2426 26.9856 47.2426 27.1749C47.2426 28.311 47.1479 29.3524 47.1479 30.4885C47.1479 31.0566 47.1479 31.53 47.0533 32.0033C47.0533 31.9087 46.9586 31.814 46.9586 31.6246C46.9586 31.7193 46.9586 31.7193 46.9586 31.814C46.9586 32.098 47.0532 32.2873 46.9586 32.5714C46.9586 32.666 46.9586 32.9501 47.0533 33.0447V32.9501C46.9586 33.2341 46.9586 33.5181 46.9586 33.8968C46.9586 34.1808 46.9586 34.4649 46.9586 34.7489V34.8436C47.0532 35.2223 47.0532 35.2223 46.9586 35.4116C46.9586 35.5063 46.9586 35.601 46.9586 35.6956C46.9586 35.885 46.9586 35.9797 46.9586 36.169C46.9586 36.2637 46.9586 36.3584 46.9586 36.453C46.9586 36.5477 46.9586 36.6424 46.9586 36.7371C46.9586 37.0211 46.8639 37.3998 46.7692 37.6838C46.6745 37.8732 46.4852 38.1572 46.3905 38.3465C46.1065 38.6305 45.7278 38.8199 45.3491 38.9146C45.5385 38.8199 45.7278 38.7252 45.9172 38.6305C46.4852 38.2518 46.8639 37.4944 46.8639 36.8317C46.8639 36.169 46.8639 35.601 46.8639 34.9382C46.8639 34.8436 46.8639 34.7489 46.8639 34.6542C46.8639 34.4649 46.8639 34.1808 46.8639 33.9915C46.8639 33.6128 46.8639 33.2341 46.8639 32.9501C46.8639 32.8554 46.8639 32.7607 46.8639 32.6661L46.9586 31.7193C46.7692 31.6246 46.7692 31.6246 46.8639 31.1513C46.9586 31.0566 47.0533 31.0566 47.0533 30.7726C47.0533 30.5832 47.0533 30.3939 47.0533 30.2045C47.0533 29.9205 47.0533 29.7311 47.0533 29.4471C47.0533 28.7844 47.0532 28.2163 47.1479 27.6483C47.1479 27.5536 47.1479 27.3643 47.1479 27.2696C47.1479 27.1749 47.1479 27.0803 47.0533 27.0803C47.0533 27.3643 46.9586 27.743 46.8639 27.743C46.8639 27.5536 46.8639 27.3643 46.9586 27.1749C47.0532 26.8909 47.0533 26.6069 47.0533 26.3229C47.0533 26.2282 47.0533 26.1335 47.0533 26.1335C47.0533 25.8495 47.0533 25.6601 47.0533 25.3761C47.0533 25.2814 47.0533 25.0921 47.0533 24.9027C47.0533 24.8081 47.0533 24.8081 47.0533 24.9027C47.0533 24.9027 47.0533 24.9027 47.0533 24.9974C47.0533 24.6187 47.0532 24.3347 47.1479 23.956C47.1479 23.8613 47.1479 23.7666 47.2426 23.7666C47.2426 23.5773 47.1479 23.388 47.1479 23.1986C47.1479 22.8199 47.2426 22.3465 47.2426 21.9678C47.2426 20.9264 47.2426 19.885 47.2426 18.8436C47.2426 18.7489 47.2426 18.6542 47.2426 18.5596C47.2426 18.0862 47.2426 17.6128 47.2426 17.2341C47.2426 17.1394 47.2426 17.0448 47.2426 16.9501C47.2426 16.8554 47.2426 16.7607 47.1479 16.8554C47.1479 17.2341 47.0533 17.5181 47.0533 17.8968C47.0533 18.3702 46.9586 18.9383 46.9586 19.4116C46.9586 19.601 46.9586 19.7903 46.9586 19.885C46.9586 20.0743 46.9586 20.2637 46.8639 20.5477C46.8639 20.7371 46.8639 20.9264 46.8639 21.2104C46.8639 21.7785 46.8639 22.2519 46.7692 22.7252C46.7692 23.388 46.7692 23.956 46.6746 24.6187C46.6746 25.2814 46.5799 26.0388 46.5799 26.7016C46.5799 27.5536 46.4852 28.4057 46.4852 29.3524C46.4852 29.8258 46.4852 30.2992 46.3905 30.8672C46.3905 30.8672 46.3905 30.8672 46.3905 30.9619C46.3905 30.5832 46.3905 30.2992 46.2959 29.9205C46.2959 29.8258 46.2959 29.8258 46.2959 29.7311C46.3905 29.4471 46.2959 29.0684 46.2959 28.6897C46.2959 28.4057 46.2959 28.1217 46.2959 27.8376C46.2959 27.6483 46.2959 27.3643 46.2959 27.1749V27.2696C46.3905 27.0803 46.3905 26.8909 46.3905 26.7016C46.3905 26.4175 46.3905 26.1335 46.3905 25.8495C46.3905 25.1868 46.4852 24.4294 46.4852 23.7666C46.4852 23.672 46.4852 23.5773 46.4852 23.4826C46.4852 23.1039 46.4852 22.7252 46.4852 22.3465C46.4852 22.0625 46.4852 21.7785 46.4852 21.4945C46.4852 21.3998 46.4852 21.3998 46.4852 21.2104C46.4852 21.4945 46.3905 21.7785 46.3905 21.9678C46.3905 22.7252 46.3905 23.4826 46.2959 24.1454C46.2959 23.388 46.2959 22.6306 46.3905 21.9678C46.3905 21.5891 46.3905 21.3051 46.3905 20.9264C46.3905 20.8317 46.3905 20.6424 46.4852 20.6424V20.5477C46.4852 19.9797 46.5799 19.4116 46.4852 18.8436C46.4852 18.6542 46.4852 18.4649 46.4852 18.3702C46.4852 18.3702 46.5799 18.3702 46.5799 18.2755C46.5799 17.8968 46.5799 17.6128 46.4852 17.2341C46.3905 17.8022 46.3905 18.1809 46.3905 18.6542C46.3905 18.8436 46.3905 19.1276 46.2959 19.3169C46.2959 19.885 46.2012 20.5477 46.2012 21.1158C46.1065 21.8732 46.1065 22.5359 46.1065 23.2933C46.1065 23.4826 46.1065 23.672 46.1065 23.8613C46.1065 24.524 46.0118 25.1868 46.0118 25.7548C46.0118 26.7016 45.9172 27.6483 45.9172 28.5004C45.9172 29.5418 45.8225 30.5832 45.8225 31.6246C45.8225 32.7607 45.7278 33.8021 45.7278 34.9382C45.7278 34.9382 45.7278 34.9382 45.7278 35.0329C45.7278 35.4116 45.7278 35.885 45.6331 36.2637C45.6331 36.6424 45.6331 37.0211 45.6331 37.3998C45.6331 37.4945 45.6331 37.5891 45.6331 37.5891C45.5385 37.9678 45.1598 38.2518 44.7811 38.3465C44.497 38.4412 44.213 38.4412 43.929 38.5359L42.9822 38.7252C42.7929 38.7252 42.6035 38.8199 42.5089 38.8199C41.4675 39.0092 40.426 39.1039 39.3846 39.1986C38.4379 39.2933 37.4911 39.2933 36.4497 39.3879C35.3136 39.3879 34.1775 39.2933 33.0414 39.1986C31.6213 39.1039 30.2959 38.8199 28.9704 38.5359C28.1184 38.3465 27.361 38.0625 26.3195 37.7785C25.8462 37.5891 25.3728 37.4945 24.8994 37.3998C24.426 37.3051 23.9527 37.2104 23.4793 37.1158C23.0059 37.0211 22.4379 36.9264 21.9645 36.9264C21.1124 36.8317 20.2604 36.8317 19.4083 36.7371C18.0829 36.7371 16.8521 36.7371 15.5266 36.9264C15.0533 36.9264 14.5799 37.0211 14.1065 37.0211C14.0119 37.0211 13.9172 37.1158 13.8225 37.1158C13.2545 37.2104 12.6864 37.3051 12.1184 37.3998C11.2663 37.4945 10.5089 37.6838 9.65683 37.8731L9.18345 37.9678L8.99411 38.0625C8.80476 38.1572 8.71008 38.1572 8.52073 38.0625C8.23671 37.9678 7.95269 37.6838 7.95269 37.3051V37.2104C7.95269 36.5477 7.95269 35.885 7.95269 35.2223C7.95269 35.2223 7.95269 35.2223 7.95269 35.1276C7.95269 35.2223 7.95269 35.3169 7.95269 35.4116C7.95269 35.6956 7.95269 35.885 7.95269 36.169C7.95269 36.453 7.95269 36.8317 7.95269 37.1158V37.2104C7.95269 37.4945 8.04736 37.6838 8.23671 37.8731C8.33138 37.9678 8.52073 38.0625 8.71008 38.0625C8.80476 38.0625 8.89943 38.0625 8.89943 37.9678L9.27813 37.8731C10.8876 37.4945 12.4971 37.3051 14.0119 37.0211C14.2012 37.0211 14.4852 36.9264 14.6746 36.9264C16.284 36.7371 17.8935 36.6424 19.503 36.6424C21.3018 36.6424 23.1006 36.8317 24.8994 37.2104C25.0888 37.2104 25.2781 37.3051 25.4675 37.3051C25.4675 37.3051 25.5621 37.3051 25.6568 37.3051C25.5621 37.3051 25.5621 37.2104 25.4675 37.2104C25.7515 37.3051 26.0355 37.3051 26.3195 37.3998C26.2249 37.3998 26.2249 37.3051 26.2249 37.3051C25.8462 37.1157 25.4675 37.1157 25.0888 37.0211C24.8047 37.0211 24.6154 36.9264 24.3314 36.8317L24.2367 36.7371H24.3314C24.426 36.7371 24.426 36.6424 24.2367 36.6424C24.142 36.6424 23.9527 36.6424 23.858 36.5477C23.29 36.453 22.8166 36.453 22.0592 36.2637C21.9645 36.2637 21.7752 36.2637 21.5858 36.2637C21.0178 36.2637 20.4497 36.2637 19.9763 36.169C19.219 36.169 18.4616 36.169 17.7042 36.169C16.3787 36.2637 15.1479 36.3584 13.9172 36.453C12.5917 36.6424 11.361 36.8317 10.0355 37.0211C9.65683 37.1157 9.3728 37.2104 8.99411 37.3051C8.89943 37.3051 8.89943 37.3051 8.80476 37.3051C8.61541 37.3051 8.42606 37.1158 8.42606 36.9264V36.8317V36.5477C8.42606 35.2223 8.33138 33.9915 8.33138 32.6661C8.33138 31.9087 8.33138 31.1513 8.33138 30.2992C8.33138 29.4471 8.23671 28.595 8.23671 27.8376C8.23671 26.7016 8.14204 25.5655 8.14204 24.3347C8.14204 24.0507 8.14204 23.672 8.14204 23.2933C8.14204 22.7252 8.04736 22.1572 8.04736 21.5891C8.04736 20.8317 8.04736 20.169 8.04736 19.4116C8.04736 18.9383 8.04736 18.4649 8.04736 17.9915V17.3288C8.04736 17.2341 8.04736 17.1394 8.04736 17.0448C8.04736 16.9501 8.04736 16.9501 8.04736 16.8554C8.14204 16.6661 8.33139 16.4767 8.52073 16.382C8.71008 16.382 8.80476 16.2874 8.99411 16.2874C9.27813 16.1927 9.56215 16.1927 9.94085 16.098C10.2249 16.0033 10.5089 16.0033 10.6982 15.9087C11.4556 15.7193 12.213 15.6246 12.9704 15.53C13.7278 15.4353 14.4852 15.3406 15.2426 15.2459C15.6213 15.2459 15.9053 15.1513 16.284 15.1513C16.6627 15.1513 17.0414 15.0566 17.4201 15.0566C17.6095 15.0566 17.7988 15.0566 17.9882 15.0566C18.6509 15.0566 19.3136 14.9619 20.071 14.9619C20.8284 14.9619 21.5858 14.9619 22.2485 15.0566C22.8166 15.0566 23.3846 15.1513 23.9527 15.2459C24.0474 15.2459 24.142 15.2459 24.3314 15.3406C24.6154 15.4353 24.8994 15.4353 25.0888 15.4353C25.1834 15.4353 25.3728 15.4353 25.4675 15.53C25.5621 15.53 25.6568 15.53 25.7515 15.6246C25.9408 15.6246 26.1302 15.6246 26.4142 15.7193C26.6982 15.814 27.0769 15.9087 27.361 16.0033C27.645 16.098 28.0237 16.1927 28.3077 16.2874C28.497 16.382 28.7811 16.382 29.0651 16.4767C29.9172 16.6661 30.8639 16.8554 31.8107 16.9501C32.1894 17.0448 32.5681 17.0448 32.9468 17.0448C33.3254 17.0448 33.7988 17.0448 34.1775 17.1394C34.5562 17.1394 34.9349 17.1394 35.4083 17.1394C35.787 17.1394 36.1657 17.0448 36.5444 17.0448H36.6391H36.5444C36.4497 17.0448 36.355 17.0448 36.355 17.0448C35.8817 17.0448 35.503 17.0448 35.0296 17.0448C35.0296 17.0448 34.9349 17.0448 34.9349 16.9501H35.0296C35.4083 16.9501 35.6923 16.9501 36.071 16.8554C36.1657 16.8554 36.2604 16.8554 36.4497 16.8554C36.6391 16.8554 36.7337 16.8554 36.9231 16.8554C37.0178 16.8554 37.1124 16.8554 37.1124 16.8554C37.3018 16.7607 37.3965 16.8554 37.4911 16.8554H37.5858H37.6805C37.6805 16.7607 37.6805 16.6661 37.3964 16.6661C37.2071 16.6661 36.9231 16.6661 36.7337 16.6661C36.6391 16.6661 36.5444 16.6661 36.4497 16.6661C36.9231 16.6661 37.3018 16.5714 37.7751 16.5714C37.9645 16.5714 38.0592 16.5714 38.1538 16.6661C38.2485 16.7607 38.2485 16.7607 38.5325 16.6661C38.6272 16.6661 38.7219 16.6661 38.8166 16.6661C39.1006 16.6661 39.4793 16.6661 39.7633 16.5714C40.3314 16.4767 40.8994 16.4767 41.3728 16.2874C42.1302 16.1927 42.7929 16.0033 43.4556 15.7193C43.5503 15.7193 43.645 15.6246 43.645 15.6246C43.645 15.53 43.5503 15.6246 43.4556 15.6246C43.0769 15.7193 42.7929 15.7193 42.5089 15.814L42.2248 15.9087C42.5089 15.814 42.7929 15.7193 43.0769 15.6246C43.3609 15.53 43.5503 15.53 43.8343 15.4353C43.929 15.4353 44.1183 15.3406 44.213 15.3406L44.4024 15.2459H44.497L44.7811 15.7193L44.5917 15.2459C44.6864 15.2459 44.7811 15.1513 44.8757 15.1513C45.2544 15.0566 45.7278 15.1513 46.1065 15.2459C46.2959 15.3406 46.3905 15.4353 46.5799 15.53C46.7692 15.6246 46.8639 15.814 46.9586 15.9087C47.0532 16.0033 47.1479 16.1927 47.2426 16.1927C47.1479 15.9087 46.9586 15.7193 46.7692 15.4353L46.6746 15.3406H46.5799C46.5799 15.3406 46.4852 15.3406 46.4852 15.2459C46.4852 15.2459 46.4852 15.2459 46.5799 15.2459H46.6746L46.7692 15.3406C46.8639 15.4353 46.9586 15.53 47.1479 15.7193C47.2426 15.814 47.3373 15.9087 47.3373 16.098C47.4319 16.1927 47.4319 16.382 47.5266 16.4767C47.5266 16.2874 47.4319 16.1927 47.3373 16.0033C47.1479 15.7193 46.9586 15.3406 46.6746 15.1513L46.5799 15.0566C46.2012 14.7726 45.8225 14.6779 45.6331 14.4885C45.5385 14.3939 45.2544 14.3939 45.0651 14.3939C44.8757 14.3939 44.5917 14.3939 44.4024 14.4885L44.7811 15.53L44.4024 14.8672L44.213 14.4885H44.1183H43.929C43.8343 14.4885 43.645 14.5832 43.5503 14.5832C42.9822 14.6779 42.3195 14.7726 41.7515 14.8672C42.0355 14.7726 42.4142 14.6779 42.6982 14.6779C42.9822 14.5832 43.2663 14.4886 43.645 14.3939H43.7396C43.8343 14.2992 43.929 14.2992 44.1183 14.2045H44.213C44.213 14.2045 44.213 14.2045 44.1183 14.2045C44.1183 14.2045 44.1183 14.2045 44.1183 14.2992L44.3077 14.6779C44.4024 14.9619 44.5917 15.1513 44.6864 15.4353L44.3077 14.1099C44.7811 14.0152 45.2544 13.9205 45.7278 14.0152C45.9172 14.0152 46.2959 14.2045 46.2959 14.1099C46.2012 14.0152 46.1065 14.0152 46.0118 14.0152C45.4438 13.8258 44.7811 13.8258 44.213 14.0152L44.6864 15.4353C44.497 15.0566 44.3077 14.6779 44.1183 14.2045L44.0237 14.0152C44.0237 13.9205 44.0237 14.0152 44.0237 14.0152H44.1183C44.213 14.0152 44.1183 14.0152 44.1183 14.0152H43.929C43.7396 14.0152 43.5503 14.1099 43.4556 14.1099C43.8343 14.0152 43.8343 14.0152 44.0237 13.9205C43.8343 14.0152 43.645 14.0152 43.4556 14.0152C43.2663 14.1099 43.0769 14.1099 42.9822 14.2045C42.8876 14.2992 42.7929 14.2045 42.7929 14.2045C42.1302 13.8258 41.9408 13.9205 41.6568 13.9205ZM8.23671 36.8317C8.33138 36.8317 8.33138 36.9264 8.23671 36.8317C8.33138 36.9264 8.33138 36.9264 8.33138 36.9264L8.23671 36.8317C8.33138 36.8317 8.33138 36.9264 8.23671 36.8317ZM17.7988 35.7903C17.7042 35.7903 17.5148 35.7903 17.4201 35.7903H17.7988ZM42.6982 40.3347C42.6982 40.24 42.7929 40.24 42.8876 40.1453H42.7929C42.7929 40.1453 42.7929 40.1453 42.8876 40.1453C42.8876 40.24 42.8876 40.24 42.6982 40.3347ZM41.9408 40.1453C42.0355 40.24 42.0355 40.24 42.0355 40.3347C41.9408 40.3347 41.9408 40.3347 41.9408 40.3347C41.8462 40.3347 41.8462 40.24 41.7515 40.24C41.6568 40.24 41.6568 40.24 41.5621 40.24H41.6568H41.7515C41.7515 40.24 41.8462 40.24 41.9408 40.1453ZM15.432 35.9797H15.3373C15.432 35.885 15.6213 35.885 15.8107 35.885C15.9053 35.885 16 35.885 16.0947 35.885C16.284 35.885 16.3787 35.7903 16.5681 35.7903C16.3787 35.885 16.3787 35.885 16.0947 35.885C15.9053 35.885 15.6213 35.9797 15.432 35.9797ZM14.7693 35.9797C14.7693 35.9797 14.8639 35.9797 14.9586 35.9797C14.7692 35.9797 14.6746 35.9797 14.5799 36.0743C14.4852 36.0743 14.4852 36.169 14.3906 36.169C13.8225 36.2637 13.3491 36.2637 12.7811 36.3584C12.8758 36.3584 12.8758 36.2637 12.8758 36.2637C13.4438 36.169 14.0119 36.0743 14.5799 36.0743C14.6746 35.9797 14.7693 35.9797 14.7693 35.9797ZM42.7929 39.2933C42.6982 39.2933 42.6035 39.2933 42.6035 39.2933C41.4675 39.5773 40.3314 39.5773 39.1953 39.7666C38.8166 39.7666 38.3432 39.8613 37.9645 39.8613C38.0592 39.7666 38.1538 39.7666 38.2485 39.7666C38.8166 39.7666 39.3846 39.672 39.9527 39.672C40.6154 39.5773 41.3728 39.5773 42.0355 39.3879C42.7929 39.2933 43.645 39.1039 44.4024 39.0092C44.497 39.0092 44.5917 39.0092 44.6864 39.0092C44.0237 39.1039 43.4556 39.2933 42.7929 39.2933ZM28.4024 15.53C28.1184 15.4353 27.929 15.3406 27.645 15.3406C27.1716 15.2459 26.6982 15.1513 26.2249 14.9619C26.0355 14.8672 25.8462 14.8673 25.5621 14.7726C26.1302 14.8673 26.8876 15.0566 27.645 15.2459C28.4024 15.4353 29.1598 15.7193 29.5385 15.814C29.1598 15.7193 28.7811 15.6246 28.4024 15.53ZM8.89943 36.9264C8.89943 36.9264 8.80476 36.9264 8.89943 36.9264C8.80476 36.9264 8.80476 36.9264 8.89943 36.9264C8.80476 36.9264 8.80476 36.9264 8.89943 36.9264L10.2249 36.5477C10.4142 36.5477 10.6036 36.453 10.7929 36.453C10.8876 36.453 10.8876 36.453 10.9823 36.453L10.8876 36.5477L9.84618 36.7371C9.46748 36.8317 9.18346 36.9264 8.89943 36.9264ZM34.0828 16.1927C34.0828 16.1927 34.1775 16.1927 34.0828 16.1927C34.2722 16.1927 34.2722 16.1927 34.2722 16.2874H34.1775C33.9882 16.2874 33.8935 16.2874 33.7041 16.2874C33.2308 16.2874 32.6627 16.1927 32.1894 16.1927C32.0947 16.1927 32 16.1927 32 16.1927C32.6627 16.098 33.4201 16.1927 34.0828 16.1927ZM7.76334 33.8021C7.76334 33.6128 7.76334 33.5181 7.76334 33.3288C7.76334 32.6661 7.76334 32.098 7.76334 31.4353L7.85801 33.8968C7.76334 33.8968 7.76334 33.8968 7.76334 33.8021ZM20.5444 35.7903C20.355 35.7903 20.1657 35.7903 20.071 35.7903C19.8817 35.7903 19.787 35.7903 19.6923 35.6956C20.1657 35.6956 20.6391 35.6956 21.1124 35.7903C20.9231 35.7903 20.7337 35.7903 20.5444 35.7903ZM29.8225 15.814C30.1065 15.9087 30.3905 15.9087 30.5799 15.9087C30.7692 15.9087 30.9586 15.9087 31.1479 16.0033C30.7692 16.0033 30.2959 15.9087 29.8225 15.814ZM8.14204 36.3584C8.14204 36.169 8.14204 35.885 8.04736 35.6956V35.601C8.04736 35.601 8.14204 35.601 8.14204 35.6956C8.14204 35.885 8.14204 36.0743 8.14204 36.2637V36.3584C8.14204 36.453 8.14204 36.3584 8.14204 36.3584C8.14204 36.3584 8.14204 36.453 8.14204 36.3584ZM8.23671 36.7371C8.14204 36.7371 8.14204 36.7371 8.23671 36.7371C8.14204 36.7371 8.04736 36.737 8.14204 36.5477C8.14204 36.5477 8.23671 36.6424 8.23671 36.7371ZM11.929 36.3584C12.0237 36.3584 12.213 36.3584 12.3077 36.2637C12.0237 36.3584 12.0237 36.3584 11.4556 36.453C11.5503 36.453 11.7397 36.3584 11.929 36.3584ZM46.6746 38.7252C46.7692 38.7252 46.7692 38.7252 46.6746 38.7252C46.5799 39.0092 46.3905 39.1039 46.1065 39.1986C46.4852 38.9146 46.4852 38.9146 46.6746 38.7252ZM46.7692 29.7311C46.7692 29.9205 46.7692 30.0152 46.7692 30.1098C46.7692 30.0152 46.7692 29.9205 46.7692 29.6365C46.7692 29.6365 46.7692 29.6365 46.7692 29.7311ZM46.2959 24.24V24.7134V24.24ZM8.04736 35.0329C8.04736 35.1276 8.04736 35.2223 8.04736 35.3169C8.04736 35.3169 8.04736 35.2223 8.04736 35.0329ZM37.2071 40.808H37.1124C37.1124 40.808 37.2071 40.7134 37.2071 40.808C37.2071 40.7134 37.3018 40.7134 37.3964 40.7134C37.3018 40.8081 37.3018 40.808 37.2071 40.808ZM46.4852 18.6542V19.0329V18.6542ZM8.04736 34.5595V34.4649C8.04736 34.3702 8.04736 34.3702 8.04736 34.2755V34.3702C8.14204 34.4649 8.14204 34.5595 8.04736 34.5595ZM33.1361 40.808C33.1361 40.808 33.0414 40.7134 33.1361 40.808C33.0414 40.7134 33.1361 40.7134 33.1361 40.808C33.1361 40.7134 33.2308 40.808 33.2308 40.808H33.1361ZM8.04736 30.3939C8.04736 30.3939 8.04736 30.2992 8.04736 30.3939C8.04736 30.2992 8.04736 30.3939 8.04736 30.3939ZM36.1657 40.808C36.071 40.808 36.071 40.808 35.8817 40.808C36.071 40.808 36.071 40.808 36.1657 40.808ZM46.7692 28.2164C46.7692 28.2164 46.6745 28.2164 46.7692 28.2164C46.6745 28.2164 46.6745 28.1217 46.7692 28.2164C46.7692 28.1217 46.7692 28.1217 46.7692 28.1217C46.6745 28.1217 46.7692 28.1217 46.7692 28.2164ZM34.1775 40.7134C34.0828 40.7134 34.0828 40.7134 33.9882 40.7134H34.1775ZM47.6213 25.3761C47.6213 25.3761 47.6213 25.2814 47.6213 25.3761C47.6213 25.2814 47.6213 25.2814 47.6213 25.1868V25.2814V25.3761ZM47.6213 23.8613C47.6213 23.8613 47.6213 23.7666 47.6213 23.8613C47.6213 23.7666 47.6213 23.7666 47.6213 23.7666V23.8613ZM40.9941 15.2459C40.9941 15.3406 40.9941 15.3406 40.9941 15.2459C40.9941 15.3406 40.9941 15.3406 40.9941 15.2459C40.9941 15.2459 40.9941 15.3406 40.9941 15.2459ZM46.2959 25.2814C46.2959 25.3761 46.2959 25.3761 46.2959 25.2814C46.2959 25.3761 46.2959 25.3761 46.2959 25.2814ZM8.04736 31.2459C7.95269 31.2459 7.95269 31.2459 8.04736 31.2459V31.2459Z" fill="#C3F4C9"/>
<path d="M18.6509 14.6779C18.8402 14.5832 19.1243 14.5832 19.4083 14.5832C20.2603 14.5832 21.2071 14.5832 22.0592 14.6779C23.0059 14.6779 23.858 14.8672 24.8047 14.9619C25.2781 15.0566 25.6568 15.1512 26.1302 15.1512C26.5089 15.2459 26.8876 15.3406 27.2663 15.4353C27.3609 15.4353 27.3609 15.5299 27.4556 15.5299C27.4556 15.6246 27.3609 15.6246 27.2663 15.6246C27.1716 15.6246 27.0769 15.6246 26.9822 15.5299C26.4142 15.3406 25.8461 15.2459 25.2781 15.1512C24.71 15.0566 24.142 14.9619 23.574 14.8672C22.8166 14.7725 21.9645 14.7725 21.2071 14.6779C20.355 14.6779 19.6923 14.6779 18.8402 14.5832C18.7456 14.7725 18.7456 14.7725 18.6509 14.6779Z" fill="#C3F4C9"/>
<path d="M34.4615 16.5714C34.3669 16.5714 34.2722 16.5714 34.1775 16.5714C33.6095 16.5714 33.0414 16.5714 32.568 16.5714C32.0947 16.5714 31.6213 16.4768 31.2426 16.4768C30.7692 16.4768 30.2959 16.3821 29.9172 16.2874C29.4438 16.1927 28.9704 16.0981 28.497 16.0034H28.4024C28.1183 15.9087 27.929 15.814 27.645 15.814L27.5503 15.7194C27.5503 15.7194 27.5503 15.7194 27.645 15.7194C27.645 15.7194 27.7396 15.7194 27.8343 15.7194C28.3077 15.814 28.7811 15.9087 29.1598 16.0981C29.6331 16.1927 30.1065 16.2874 30.5799 16.3821C31.3373 16.4768 32.0947 16.5714 32.8521 16.6661C32.9467 16.6661 33.0414 16.6661 33.1361 16.6661C33.4201 16.7608 33.7988 16.7608 34.0828 16.7608C34.1775 16.5714 34.3669 16.5714 34.4615 16.5714Z" fill="#C3F4C9"/>
<path d="M11.7397 35.885C12.4024 35.7903 13.0651 35.6957 13.7278 35.601C14.4852 35.5063 15.3373 35.4116 16.0947 35.317C16.5681 35.317 17.0414 35.317 17.5148 35.2223C17.6095 35.2223 17.6095 35.2223 17.7041 35.2223H17.6095C16.9468 35.2223 16.284 35.317 15.716 35.317C15.5266 35.317 15.432 35.317 15.2426 35.317C14.5799 35.317 13.8225 35.4116 13.1598 35.601C13.0651 35.601 12.9704 35.601 12.8758 35.601C12.4971 35.601 12.0237 35.6957 11.645 35.7903C11.4556 35.7903 11.361 35.885 11.1716 35.885H11.0769C11.1716 35.885 11.1716 35.7903 11.2663 35.7903C11.4556 35.9797 11.5503 35.9797 11.7397 35.885Z" fill="#C3F4C9"/>
<path d="M27.2663 36.9264C26.8876 36.737 26.5089 36.6424 26.0355 36.5477C25.6568 36.453 25.2781 36.3583 24.8994 36.2637H24.8047C24.8047 36.2637 24.8047 36.2637 24.8994 36.2637C25.1834 36.3583 25.5621 36.3583 25.8461 36.453C26.0355 36.5477 26.1302 36.5477 26.3195 36.6424C26.8876 36.8317 27.4556 36.9264 27.929 37.1157C28.4023 37.3051 28.8757 37.3998 29.4438 37.4944C29.4438 37.4944 29.5384 37.4944 29.5384 37.5891C29.5384 37.5891 29.5384 37.6838 29.4438 37.5891C29.3491 37.5891 29.2544 37.5891 29.2544 37.5891C29.0651 37.5891 28.9704 37.4944 28.781 37.4944C28.213 37.2104 27.8343 37.1157 27.2663 36.9264Z" fill="#C3F4C9"/>
<path d="M21.2071 35.317C21.5858 35.317 21.8699 35.317 22.2486 35.4116C22.1539 35.4116 22.1539 35.4116 22.0592 35.4116C21.4912 35.4116 21.0178 35.4116 20.4497 35.317C20.071 35.317 19.787 35.317 19.4083 35.317C19.219 35.317 19.0296 35.317 18.8403 35.317C18.8403 35.317 18.7456 35.317 18.7456 35.2223H18.8403C19.4083 35.2223 19.9764 35.2223 20.5444 35.2223C20.8284 35.317 21.0178 35.4116 21.2071 35.317Z" fill="#C3F4C9"/>
<path d="M31.5266 37.5892C31.1479 37.5892 30.7692 37.4945 30.4852 37.4945C29.8225 37.3051 29.0651 37.1158 28.4023 36.9265C29.2544 37.2105 30.2012 37.3998 31.1479 37.4945C31.3373 37.4945 31.5266 37.4945 31.5266 37.5892Z" fill="#C3F4C9"/>
<path d="M37.6805 37.8732C37.5858 37.8732 37.3964 37.8732 37.3018 37.8732C37.3964 37.8732 37.4911 37.8732 37.4911 37.7785C37.9645 37.7785 38.3432 37.6839 38.8165 37.6839C39.3846 37.6839 39.9526 37.5892 40.5207 37.4945C40.6154 37.4945 40.6154 37.4945 40.71 37.4945C40.3313 37.5892 40.3313 37.5892 40.0473 37.5892C39.858 37.5892 39.6686 37.5892 39.4793 37.5892C39.1006 37.5892 38.6272 37.6839 38.2485 37.6839C37.9645 37.7785 37.7751 37.7785 37.6805 37.8732Z" fill="#C3F4C9"/>
<path d="M44.5917 36.8317C44.5917 36.8317 44.5917 36.7371 44.5917 36.8317C44.5917 36.7371 44.5917 36.7371 44.5917 36.6424C44.5917 36.6424 44.5917 36.6424 44.5917 36.5477C44.5917 36.5477 44.5917 36.5477 44.5917 36.453C44.5917 36.3584 44.5917 36.3584 44.5917 36.2637C44.5917 36.169 44.5917 36.0743 44.5917 35.885C44.5917 35.5063 44.5917 35.2223 44.6864 34.7489C44.6864 35.1276 44.7811 35.4116 44.6864 35.6956C44.6864 35.885 44.5917 36.169 44.6864 36.3584C44.7811 36.6424 44.6864 36.7371 44.5917 36.8317Z" fill="#C3F4C9"/>
<path d="M34.5562 37.8731C34.5562 37.8731 34.4615 37.7784 34.5562 37.8731C34.5562 37.7784 34.6509 37.7784 34.5562 37.8731C35.0296 37.7784 35.503 37.7784 35.8817 37.7784C36.071 37.7784 36.355 37.7784 36.5444 37.7784C36.639 37.7784 36.639 37.7784 36.7337 37.7784C36.4497 37.8731 36.2603 37.8731 35.9763 37.8731C35.5976 37.8731 35.2189 37.7784 34.7456 37.8731C34.7456 37.8731 34.6509 37.8731 34.5562 37.8731Z" fill="#C3F4C9"/>
<path d="M47.716 36.3583C47.8107 36.453 47.8107 36.5477 47.8107 36.8317C47.8107 37.4944 47.6213 38.0625 47.2426 38.6305C47.2426 38.7252 47.1479 38.8199 47.0533 38.8199C46.9586 38.8199 46.9586 38.8199 46.9586 38.8199V38.7252C47.3373 38.2518 47.5266 37.6838 47.6213 37.1157C47.716 36.8317 47.716 36.453 47.716 36.3583Z" fill="#C3F4C9"/>
<path d="M8.52069 36.3583C8.52069 36.453 8.61537 36.453 8.61537 36.5477C8.52069 36.5477 8.52069 36.453 8.52069 36.3583Z" fill="#C3F4C9"/>
<path d="M38.5325 40.8081C38.7219 40.7134 38.9112 40.7134 39.0059 40.7134C39.1953 40.7134 39.3846 40.7134 39.3846 40.7134C39.3846 40.8081 39.4793 40.9028 39.4793 40.9028C39.4793 40.9028 39.3846 40.9028 39.3846 40.9975H39.2899C39.2899 40.9028 39.1953 40.9028 39.0059 40.9028C38.9112 40.8081 38.7219 40.8081 38.5325 40.8081Z" fill="#C3F4C9"/>
<path d="M45.8225 21.7786C45.8225 21.6839 45.8225 21.5892 45.8225 21.4945C45.8225 21.0212 45.9172 20.5478 45.9172 20.0744C45.9172 20.0744 45.9172 19.9797 46.0118 19.9797V20.0744C45.9172 20.6425 45.9172 21.2105 45.8225 21.7786Z" fill="#C3F4C9"/>
<path d="M8.80478 36.5477L9.0888 36.453L9.56218 36.3584L10.5089 36.169C10.5089 36.169 10.5089 36.169 10.6036 36.169H10.6983C10.6983 36.169 10.6983 36.169 10.6036 36.169C10.4142 36.169 10.2249 36.2637 10.0355 36.2637C9.65685 36.3584 9.18348 36.453 8.80478 36.5477Z" fill="#C3F4C9"/>
<path d="M28.3077 36.8318C28.1184 36.8318 27.929 36.7372 27.7397 36.7372C27.645 36.7372 27.5503 36.6425 27.4556 36.6425C27.361 36.6425 27.2663 36.5478 27.1716 36.5478L27.0769 36.4531C27.1716 36.4531 27.1716 36.4531 27.2663 36.4531L27.5503 36.5478C27.645 36.5478 27.7397 36.6425 27.8343 36.6425C27.929 36.6425 28.1184 36.7371 28.3077 36.8318Z" fill="#C3F4C9"/>
<path d="M8.33139 30.1099C8.33139 29.8259 8.33139 29.4472 8.33139 29.1632C8.33139 29.0685 8.33139 29.0685 8.33139 28.9738C8.33139 28.9738 8.42607 29.0685 8.42607 29.1632C8.42607 29.6365 8.42607 30.2046 8.42607 30.678C8.42607 30.7726 8.42607 30.8673 8.42607 30.8673C8.33139 30.5833 8.33139 30.2993 8.33139 30.1099Z" fill="#C3F4C9"/>
<path d="M42.6036 37.3051C42.5089 37.2105 42.5089 37.2105 42.6036 37.3051C42.8876 37.1158 43.2663 37.1158 43.645 37.0211C43.7397 37.0211 43.8343 37.0211 44.0237 37.0211C43.645 37.1158 43.361 37.2105 43.1716 37.2105C42.9823 37.2105 42.7929 37.2105 42.6036 37.3051Z" fill="#C3F4C9"/>
<path d="M47.8106 24.6188C47.8106 24.9975 47.8106 25.2815 47.8106 25.6602C47.8106 25.7549 47.8106 25.7549 47.8106 25.8495H47.716C47.716 25.5655 47.6213 25.1868 47.716 24.9028C47.8106 24.7135 47.8106 24.7134 47.8106 24.6188Z" fill="#C3F4C9"/>
<path d="M8.99408 16.0034C9.46745 15.9087 9.84615 15.814 10.3195 15.7194H10.4142C10.3195 15.7194 10.2248 15.814 10.1302 15.814C9.84615 15.9087 9.46745 15.9087 9.18343 16.0034C9.08875 16.0034 9.08875 16.0034 8.99408 16.0034Z" fill="#C3F4C9"/>
<path d="M37.3018 16.0981C37.4911 16.0981 37.7751 16.0981 37.9645 16.0981H38.0592C38.0592 16.0981 38.0592 16.0981 37.9645 16.1928C37.9645 16.1928 37.9645 16.1928 37.8698 16.1928C37.4911 16.2874 37.1124 16.2874 36.7337 16.2874H36.639C36.8284 16.2874 36.9231 16.1928 37.1124 16.1928L37.3018 16.0981Z" fill="#C3F4C9"/>
<path d="M8.23669 22.1572C8.33136 22.4412 8.33136 22.8199 8.33136 23.1039V23.1986C8.33136 23.1986 8.33136 23.1039 8.23669 23.1039C8.14201 22.8199 8.14201 22.5359 8.23669 22.1572Z" fill="#C3F4C9"/>
<path d="M31.7159 37.5892C31.8106 37.5892 31.8106 37.5892 31.9053 37.5892C32.1893 37.5892 32.4733 37.5892 32.852 37.6839C32.568 37.6839 32.4733 37.6838 31.7159 37.5892Z" fill="#C3F4C9"/>
<path d="M39.4793 37.9678C39.858 37.8731 40.2367 37.8731 40.5207 37.7784C40.5207 37.7784 40.5207 37.7784 40.426 37.7784C40.2367 37.9678 39.9527 37.9678 39.4793 37.9678Z" fill="#C3F4C9"/>
<path d="M8.42606 33.6128C8.42606 33.5181 8.42606 33.4235 8.42606 33.3288C8.52073 33.5181 8.52073 33.8022 8.42606 33.9915C8.42606 33.9915 8.42606 33.9915 8.42606 33.8968C8.42606 33.8022 8.42606 33.7075 8.42606 33.6128Z" fill="#C3F4C9"/>
<path d="M44.9704 36.453C44.9704 36.0743 44.9704 35.7903 44.9704 35.4116V35.317C44.9704 35.317 44.9704 35.3169 44.9704 35.4116C45.065 35.6956 45.065 35.9797 44.9704 36.453Z" fill="#C3F4C9"/>
<path d="M30.7692 37.6838C31.0532 37.6838 31.3372 37.7784 31.6213 37.7784C31.6213 37.7784 31.7159 37.7784 31.7159 37.8731H31.6213C31.3372 37.8731 30.9585 37.8731 30.7692 37.6838Z" fill="#C3F4C9"/>
<path d="M40.8994 37.7784C41.1834 37.6838 41.3728 37.6838 41.5621 37.6838C41.5621 37.6838 41.6568 37.6838 41.5621 37.6838C41.5621 37.6838 41.5621 37.6838 41.4674 37.6838C41.3728 37.7785 41.1834 37.8731 40.8994 37.7784Z" fill="#C3F4C9"/>
<path d="M47.9053 24.6188C47.8106 24.4294 47.716 24.24 47.8106 24.0507C47.8106 23.956 47.9053 24.0507 48 24.3347C48 24.4294 48 24.4294 48 24.4294L47.9053 24.6188Z" fill="#C3F4C9"/>
<path d="M46.0118 39.672C45.9172 39.672 45.8225 39.7667 45.8225 39.7667C45.8225 39.7667 45.8225 39.672 45.9172 39.672C46.1065 39.5774 46.2012 39.4827 46.2959 39.4827C46.3905 39.4827 46.4852 39.388 46.4852 39.388C46.4852 39.388 46.4852 39.4827 46.3905 39.4827C46.2959 39.4827 46.1065 39.5774 46.0118 39.672Z" fill="#C3F4C9"/>
<path d="M26.2249 36.1691C26.2249 36.1691 26.2249 36.2638 26.0355 36.1691C25.8462 36.0744 25.6568 36.0744 25.4675 35.9798C25.4675 35.8851 25.5621 35.9798 25.6568 35.9798C25.9408 36.0744 26.0355 36.1691 26.2249 36.1691Z" fill="#C3F4C9"/>
<path d="M8.33139 27.3643C8.42606 27.5536 8.42607 27.743 8.42607 27.8376C8.42607 27.9323 8.42607 28.027 8.42607 28.1217C8.42607 28.2163 8.33139 28.027 8.33139 27.8376C8.33139 27.743 8.33139 27.5536 8.33139 27.3643Z" fill="#C3F4C9"/>
<path d="M40.8994 40.8081C40.7101 40.8081 40.7101 40.9027 40.6154 40.9027C40.5207 40.9027 40.426 40.9974 40.3314 40.9027C40.3314 40.9027 40.426 40.8081 40.5207 40.8081C40.7101 40.7134 40.8047 40.7134 40.8994 40.8081Z" fill="#C3F4C9"/>
<path d="M45.8225 22.4412C45.7278 22.1572 45.7278 21.9678 45.8225 21.6838C45.9171 21.7785 45.9171 21.8731 45.9171 22.0625C45.8225 22.2518 45.8225 22.3465 45.8225 22.4412Z" fill="#C3F4C9"/>
<path d="M8.42606 31.4353C8.52073 31.814 8.52073 32.098 8.42606 32.382C8.42606 32.098 8.42606 31.814 8.42606 31.53V31.4353Z" fill="#C3F4C9"/>
<path d="M33.4201 37.7784C33.6095 37.7784 33.7988 37.7784 33.9882 37.7784C33.7042 37.8731 33.6095 37.7784 33.4201 37.7784Z" fill="#C3F4C9"/>
<path d="M35.2189 40.9974L35.3136 41.0921V41.1868C35.2189 41.1868 35.1242 41.1868 35.1242 41.1868C35.0295 41.1868 35.0295 41.0921 35.0295 41.0921C35.0295 40.9974 35.1242 40.9974 35.2189 40.9974Z" fill="#C3F4C9"/>
<path d="M41.1834 37.3998C41.2781 37.3998 41.3728 37.3998 41.4674 37.3998H41.3728C41.2781 37.3998 41.1834 37.3998 41.0887 37.3998C41.0887 37.4945 41.0887 37.3998 41.1834 37.3998Z" fill="#C3F4C9"/>
<path d="M47.716 35.9797V36.0744C47.716 36.0744 47.716 36.0744 47.716 35.9797C47.6213 36.0744 47.6213 35.9797 47.6213 35.885C47.6213 35.7904 47.6213 35.7904 47.6213 35.6957C47.6213 35.6957 47.6213 35.6957 47.716 35.7904C47.716 35.885 47.716 35.885 47.716 35.9797Z" fill="#C3F4C9"/>
<path d="M4.82843 18.1809C4.82843 18.0862 4.82843 17.8969 4.82843 17.8022V17.7075C4.82843 17.7075 4.82843 17.7075 4.82843 17.8022C4.9231 17.8969 4.9231 17.9915 4.82843 18.1809Z" fill="#C3F4C9"/>
<path d="M43.645 40.1453C43.8343 40.0507 44.0237 40.0507 44.1183 39.956H44.213L44.1183 40.0507C44.0237 40.1453 43.929 40.1453 43.645 40.1453Z" fill="#C3F4C9"/>
<path d="M44.7811 32.7607C44.7811 32.4767 44.7811 32.2874 44.8757 32.0034C44.8757 32.2874 44.8757 32.5714 44.7811 32.7607Z" fill="#C3F4C9"/>
<path d="M8.14202 17.7075V18.3702C8.04735 18.1809 8.04735 17.8969 8.14202 17.7075Z" fill="#C3F4C9"/>
<path d="M8.23669 21.3052C8.23669 21.3999 8.23669 21.4945 8.23669 21.5892V21.6839C8.23669 21.6839 8.23669 21.6839 8.23669 21.5892C8.14201 21.5892 8.14201 21.4945 8.23669 21.3052Z" fill="#C3F4C9"/>
<path d="M37.8698 40.9028C37.8698 40.9028 37.7751 40.8081 37.8698 40.9028C37.8698 40.8081 37.9645 40.8081 37.9645 40.8081C38.0592 40.8081 38.1538 40.8081 38.1538 40.8081C38.1538 40.8081 38.0592 40.9028 37.9645 40.9028C37.8698 40.9028 37.8698 40.9028 37.8698 40.9028Z" fill="#C3F4C9"/>
<path d="M33.1361 37.9679C33.2308 37.9679 33.4201 38.0626 33.6095 38.0626C33.6095 38.1573 33.4201 38.0626 33.3254 38.0626C33.2308 38.0626 33.1361 38.0626 33.1361 37.9679Z" fill="#C3F4C9"/>
<path d="M8.33139 26.8909C8.33139 26.7963 8.33139 26.7016 8.33139 26.7016C8.33139 26.6069 8.33139 26.5122 8.33139 26.5122C8.33139 26.4176 8.42607 26.5122 8.42607 26.7016C8.33139 26.7016 8.33139 26.7963 8.33139 26.8909Z" fill="#C3F4C9"/>
<path d="M32.284 37.9679C32.1893 37.9679 32.1893 37.9679 32.0947 37.9679C32 37.9679 32 37.9679 31.9053 37.8732H32C32.1893 37.8732 32.1893 37.8732 32.284 37.9679Z" fill="#C3F4C9"/>
<path d="M44.4023 36.8317C44.497 36.9264 44.497 36.9264 44.4023 36.8317V36.8317Z" fill="#C3F4C9"/>
<path d="M44.0236 37.3051C44.0236 37.3051 43.929 37.3051 44.0236 37.3051C43.8343 37.3997 43.7396 37.3997 43.7396 37.3997C43.8343 37.3997 43.8343 37.3051 43.929 37.3051C43.929 37.3051 43.929 37.3051 44.0236 37.3051Z" fill="#C3F4C9"/>
<path d="M42.6982 37.5891C42.6035 37.5891 42.5089 37.5891 42.4142 37.5891C42.4142 37.5891 42.4142 37.5891 42.3195 37.5891C42.5089 37.5891 42.5089 37.5891 42.6982 37.5891C42.6035 37.5891 42.6035 37.4945 42.6982 37.5891Z" fill="#C3F4C9"/>
<path d="M34.9349 38.1572C35.0296 38.1572 35.2189 38.0625 35.503 38.1572C35.2189 38.1572 35.0296 38.1572 34.9349 38.1572Z" fill="#C3F4C9"/>
<path d="M45.0651 36.6424C44.9704 36.7371 44.9704 36.7371 45.0651 36.6424C44.9704 36.6424 44.9704 36.6424 45.0651 36.6424C44.9704 36.6424 44.9704 36.6424 45.0651 36.6424C44.9704 36.6424 44.9704 36.6424 45.0651 36.6424C45.0651 36.6424 44.9704 36.6424 45.0651 36.6424Z" fill="#C3F4C9"/>
<path d="M36.1656 38.1572C36.071 38.1572 36.071 38.1572 35.9763 38.1572C35.9763 38.1572 35.9763 38.1572 35.9763 38.0625H36.071C36.071 38.0625 36.071 38.1572 36.1656 38.1572Z" fill="#C3F4C9"/>
<path d="M46.9586 23.5773V23.1986V23.1039C47.0533 23.1039 47.0533 23.1986 47.0533 23.2932C46.9586 23.3879 46.9586 23.4826 46.9586 23.5773Z" fill="#C3F4C9"/>
<path d="M46.9586 30.5833C46.9586 30.3939 46.9586 30.2046 46.9586 29.9205C47.0533 30.2992 47.0533 30.2992 46.9586 30.5833Z" fill="#C3F4C9"/>
<path d="M37.9645 38.1572C38.0592 38.0625 38.1539 38.0625 38.2485 38.0625C38.2485 38.0625 38.2485 38.0625 38.3432 38.0625C38.1539 38.0625 38.0592 38.1572 37.9645 38.1572Z" fill="#C3F4C9"/>
<path d="M47.1479 16.3821C47.1479 16.2874 47.1479 16.2874 47.2426 16.1927V16.2874C47.2426 16.3821 47.2426 16.4768 47.1479 16.4768C47.2426 16.5714 47.2426 16.4768 47.1479 16.3821Z" fill="#C3F4C9"/>
<path d="M46.8639 23.5773H46.9585L46.8639 24.1453V23.5773Z" fill="#C3F4C9"/>
<path d="M46.9586 24.524C46.9586 24.4294 46.9586 24.4294 46.9586 24.4294C47.0533 24.4294 47.0533 24.524 46.9586 24.524C47.0533 24.6187 47.0533 24.524 46.9586 24.524Z" fill="#C3F4C9"/>
<path d="M44.7811 32.8554C44.8757 33.1394 44.8757 33.1394 44.7811 33.4235C44.6864 33.1394 44.6864 33.0448 44.7811 32.8554Z" fill="#C3F4C9"/>
<path d="M47.6213 15.814C47.6213 15.9087 47.6213 16.0033 47.6213 16.0033C47.6213 15.9087 47.5266 15.814 47.6213 15.814C47.5266 15.814 47.5266 15.6246 47.5266 15.7193C47.5266 15.7193 47.6213 15.7193 47.6213 15.814Z" fill="#C3F4C9"/>
<path d="M44.6864 37.1158C44.6864 37.2105 44.6864 37.2105 44.6864 37.1158C44.6864 37.2105 44.5917 37.2105 44.6864 37.1158C44.5917 37.2105 44.5917 37.2105 44.6864 37.1158C44.6864 37.1158 44.5917 37.1158 44.6864 37.1158Z" fill="#C3F4C9"/>
<path d="M8.23669 24.9975C8.23669 24.9028 8.23669 24.9028 8.23669 24.8081C8.23669 24.9028 8.33137 24.9028 8.23669 24.9975Z" fill="#C3F4C9"/>
<path d="M33.9882 38.1572C33.8935 38.1572 33.8935 38.1572 33.8935 38.0625C33.8935 38.0625 33.9882 38.0625 33.9882 38.1572C33.9882 38.0625 34.0828 38.0625 34.0828 38.0625C34.0828 38.1572 33.9882 38.1572 33.9882 38.1572Z" fill="#C3F4C9"/>
<path d="M37.3964 38.0625C37.4911 38.1572 37.3964 38.1572 37.3964 38.0625C37.3964 38.1572 37.3964 38.1572 37.3964 38.0625Z" fill="#C3F4C9"/>
<path d="M16.7574 14.7726H16.8521C16.8521 14.8673 16.7574 14.8673 16.7574 14.7726C16.7574 14.8673 16.7574 14.8673 16.7574 14.7726Z" fill="#C3F4C9"/>
<path d="M47.9053 27.8376C47.9053 27.8376 47.8106 27.8376 47.9053 27.8376C47.8106 27.8376 47.8106 27.8376 47.9053 27.8376V27.743C47.9053 27.743 47.9053 27.743 47.9053 27.8376Z" fill="#C3F4C9"/>
<path d="M47.9053 24.524C47.9053 24.6187 47.9053 24.7134 47.9053 24.7134L47.8106 24.6187L47.9053 24.524Z" fill="#C3F4C9"/>
<path d="M48 35.7903V35.8849C47.9053 35.8849 47.9053 35.7903 48 35.7903C47.9053 35.7903 47.9053 35.7903 48 35.7903Z" fill="#C3F4C9"/>
<path d="M47.0532 29.0684V29.1631C46.9585 29.1631 46.9585 29.0684 47.0532 29.0684C46.9585 29.0684 46.9585 29.0684 47.0532 29.0684Z" fill="#C3F4C9"/>
<path d="M14.8639 14.9619C14.9586 14.9619 14.9586 14.9619 14.9586 14.9619C14.9586 14.9619 14.8639 14.9619 14.8639 14.9619C14.8639 14.9619 14.8639 15.0566 14.8639 14.9619Z" fill="#C3F4C9"/>
<path d="M47.0532 20.4531V20.3585C47.0532 20.3585 47.0532 20.3585 47.0532 20.4531C47.0532 20.3585 47.1479 20.3585 47.0532 20.4531Z" fill="#C3F4C9"/>
<path d="M14.1065 15.1513H14.0119V15.0566L14.1065 15.1513Z" fill="#C3F4C9"/>
<path d="M12.3077 15.4353C12.2131 15.53 12.2131 15.53 12.1184 15.4353H12.3077Z" fill="#C3F4C9"/>
<path d="M31.5266 37.5892H31.716C31.716 37.6838 31.6213 37.5892 31.5266 37.5892Z" fill="#C3F4C9"/>
<path d="M26.0355 10.3229C25.8461 10.3229 25.7515 10.2282 25.5621 10.2282C25.4674 10.2282 25.3728 10.1336 25.2781 10.1336C25.0887 10.1336 24.8994 10.0389 24.71 10.0389C24.426 9.94421 24.142 9.84953 23.858 9.84953V9.94421C23.5739 9.84953 23.2899 9.75485 23.1006 9.75485C23.1006 9.75485 23.0059 9.75486 23.0059 9.66018L22.8165 9.56551C22.7219 9.47083 22.7219 9.56551 22.6272 9.56551C22.4378 9.56551 22.2485 9.5655 22.0592 9.37615C21.9645 9.28148 21.7751 9.28148 21.5858 9.28148C21.7751 9.37616 21.8698 9.37616 21.9645 9.47083C21.6805 9.37616 21.4911 9.37615 21.3018 9.37615C21.2071 9.37615 21.2071 9.28148 21.1124 9.28148C21.2071 9.28148 21.2071 9.28148 21.3018 9.28148C21.3018 9.28148 21.3018 9.28148 21.3964 9.28148H21.3018C21.3018 9.28148 21.2071 9.28148 21.2071 9.37615C21.2071 9.37615 21.2071 9.37615 21.1124 9.37615C20.9231 9.37615 20.9231 9.37616 20.8284 9.28148C20.7337 9.18681 20.7337 9.28148 20.639 9.28148C20.4497 9.18681 20.355 9.09213 20.1657 9.18681C20.1657 9.18681 20.071 9.18681 19.9763 9.18681C19.8816 9.18681 19.787 9.18681 19.6923 9.18681H19.5976H19.5029C19.2189 9.18681 18.9349 9.18681 18.7455 9.18681C18.5562 9.18681 18.3668 9.09214 18.2722 9.09214C18.1775 8.99746 17.8935 8.99746 17.7041 8.99746C17.5148 8.99746 17.3254 8.99746 17.1361 8.99746C16.9467 9.09214 16.8521 8.99746 16.6627 8.99746C16.7574 8.90279 16.6627 8.90279 16.568 8.99746C16.4734 9.09214 16.284 9.09214 16.0947 8.99746H16.1893C16.1893 8.99746 16.1893 8.99746 16.0947 8.99746H16C15.8106 8.99746 15.716 8.90278 15.5266 8.90278C15.4319 8.90278 15.3373 8.90278 15.3373 8.90278H15.2426C15.0532 8.80811 14.9586 8.90278 14.8639 8.90278C14.8639 8.90278 14.7692 8.90278 14.6745 8.90278C14.5799 8.80811 14.3905 8.80811 14.2958 8.90278H14.1065C14.0118 8.90278 13.9171 8.90278 13.8225 8.90278C13.6331 8.99746 13.4438 8.90278 13.2544 8.80811C13.2544 8.80811 13.1598 8.80811 13.0651 8.80811C12.9704 8.90278 12.8757 8.90278 12.7811 8.90278C12.497 8.90278 12.3077 8.90278 12.0237 8.90278C11.8343 8.90278 11.645 8.90278 11.4556 8.90278H11.3609C11.2663 8.90278 11.0769 8.99746 10.9822 8.99746C10.7929 8.99746 10.5089 9.09214 10.3195 8.99746C10.2248 8.99746 10.0355 8.99746 9.94082 8.99746C9.94082 8.99746 9.84614 9.09214 9.75147 9.09214C9.56212 9.09214 9.2781 9.18681 9.08875 9.18681C8.99408 9.18681 8.8994 9.18681 8.71005 9.18681L8.33135 9.28148C7.76331 9.37616 7.19526 9.37616 6.62721 9.47083C6.24852 9.56551 5.86982 9.56551 5.49112 9.66018C5.01775 9.75486 4.63905 9.75485 4.16568 9.84953C3.78698 9.9442 3.40828 9.94421 3.02958 10.0389C2.93491 10.0389 2.74556 10.0389 2.65088 10.1336C2.55621 10.1336 2.55621 10.1336 2.55621 10.1336C2.55621 10.1336 2.46154 10.1336 2.46154 10.0389C2.46154 10.1336 2.46154 10.2282 2.36686 10.2282V10.3229C2.27219 10.4176 2.17751 10.5123 2.17751 10.6069C2.08284 10.6069 2.08284 10.6069 2.08284 10.7016C2.08284 10.7016 2.08284 10.891 2.08284 10.9856C2.08284 11.175 2.08284 11.459 2.08284 11.6483C2.17751 11.8377 2.17751 12.1217 2.17751 12.4057C2.17751 12.5951 2.17751 12.7844 2.08284 12.9738C1.98816 13.0685 1.98816 13.2578 2.08284 13.3525C2.17751 13.4472 2.17751 13.5418 2.17751 13.7312C2.17751 14.1099 2.17751 14.5833 2.17751 14.962C2.17751 15.0566 2.17751 15.246 2.08284 15.3406C2.08284 15.4353 2.08284 15.4353 2.08284 15.53V15.6247C2.08284 15.9087 2.08284 16.1927 2.08284 16.5714C2.08284 16.7608 2.08284 17.0448 1.98816 17.2341C1.89349 17.5182 1.89349 17.7075 1.98816 17.9915C1.98816 18.0862 2.08284 18.2756 2.08284 18.3702C2.08284 18.5596 1.98816 18.5596 1.98816 18.6543C1.98816 18.7489 2.08284 18.8436 2.08284 19.033C2.08284 19.033 2.08284 19.1276 2.08284 19.2223C2.08284 19.317 2.08284 19.4117 2.08284 19.4117C2.08284 19.5063 2.08284 19.601 2.08284 19.6957C2.17751 19.885 2.17751 20.0744 2.08284 20.2637C2.08284 20.3584 2.08284 20.4531 2.08284 20.5477C2.17751 20.7371 2.08284 21.0211 2.17751 21.2105C2.17751 21.2105 2.17751 21.3051 2.17751 21.3998C2.17751 21.4945 2.17751 21.5892 2.17751 21.7785C2.17751 22.0625 2.27219 22.4412 2.08284 22.6306C2.08284 22.6306 2.08284 22.6306 2.08284 22.7253C2.08284 22.8199 2.08284 22.9146 2.08284 22.9146C2.17751 23.0093 2.27219 23.1986 2.17751 23.4827C2.17751 23.5773 2.17751 23.672 2.17751 23.7667C2.17751 23.956 2.17751 24.0507 2.08284 24.1454C2.08284 24.1454 2.08284 24.2401 2.08284 24.3347C2.08284 24.4294 2.08284 24.5241 2.08284 24.7134C2.08284 24.9028 2.08284 24.9974 2.17751 25.1868C2.17751 25.2815 2.17751 25.3761 2.17751 25.5655C2.08284 25.6602 2.08284 25.8495 2.08284 26.0389C2.08284 26.1335 2.08284 26.3229 1.98816 26.4176C1.89349 26.5122 1.98816 26.7016 1.98816 26.7963C2.08284 26.8909 1.98816 26.9856 1.98816 27.0803C1.98816 27.2696 1.89349 27.459 1.89349 27.5537C1.98816 27.6483 1.98816 27.743 1.98816 27.8377C1.98816 28.3111 1.98816 28.7844 1.98816 29.1631C1.98816 29.2578 1.98816 29.3525 1.98816 29.4471C1.98816 29.5418 1.98816 29.7312 1.98816 29.8258C1.98816 29.8258 1.89349 29.7312 1.89349 29.6365C1.89349 29.7312 1.89349 29.8258 1.89349 29.9205C1.89349 29.9205 1.89349 30.0152 1.98816 30.0152C2.08284 30.0152 2.08284 30.0152 2.08284 30.1099C2.08284 30.2045 2.08284 30.2045 1.98816 30.2992C1.98816 30.3939 1.89349 30.3939 1.89349 30.4886C1.89349 30.8673 1.79881 31.246 1.79881 31.6247V31.7193C1.79881 31.9087 1.79881 32.098 1.70414 32.1927C1.60947 32.2874 1.60946 32.4767 1.60946 32.6661C1.60946 32.6661 1.60946 32.6661 1.60946 32.7607C1.60946 32.8554 1.70414 33.0448 1.70414 33.1395C1.70414 33.1395 1.70414 33.2341 1.70414 33.3288C1.70414 33.3288 1.70414 33.3288 1.60946 33.3288L1.51479 33.2341V33.3288C1.51479 33.3288 1.51479 33.3288 1.42012 33.3288C1.42012 33.2341 1.32544 33.2341 1.32544 33.1395C1.32544 33.0448 1.23077 33.1394 1.13609 33.0448V33.1395C1.13609 33.2341 1.13609 33.2341 1.23077 33.3288C1.32544 33.5181 1.42012 33.7075 1.60946 33.8022L1.70414 33.8969C1.51479 33.8969 1.42012 33.8022 1.23077 33.7075C1.13609 33.6128 1.04142 33.4235 0.946745 33.2341C0.85207 33.1394 0.85207 33.0448 0.85207 32.9501C0.757395 32.9501 0.66272 32.8554 0.66272 32.6661C0.66272 32.5714 0.568047 32.3821 0.568047 32.1927C0.568047 32.0034 0.473372 31.7193 0.473372 31.53C0.473372 31.4353 0.473372 31.3406 0.473372 31.1513C0.473372 30.8673 0.378698 30.5832 0.378698 30.3939C0.378698 30.0152 0.284023 29.6365 0.284023 29.2578C0.284023 29.1631 0.284023 28.7844 0.189349 28.5004C0.189349 28.2164 0.189349 27.8377 0.189349 27.5537C0.189349 26.7963 0.0946739 26.0389 0.0946739 25.1868C0.0946739 25.0921 0.0946739 25.0921 0.0946739 24.9974C0.0946739 24.7134 0.0946739 24.5241 0.0946739 24.24C0.0946739 24.0507 0.0946739 23.7667 0.0946739 23.5773C0.0946739 23.104 0 22.7253 0 22.2519C0 21.8732 0 21.5892 0 21.3051C0 20.2637 0 19.317 0 18.2756C0 17.5182 0 16.7608 0 15.9087C0 15.1513 0 14.4886 0 13.8259C0 13.4472 0 13.0685 0 12.6898C0 12.1217 0 11.6483 0 11.0803C0 10.9856 0 10.8909 0 10.7963C0.0946745 10.4176 0.189349 10.1336 0.189349 9.75485C0.189349 9.75485 0.284023 9.66018 0.284023 9.56551C0.378697 9.37616 0.473373 9.28148 0.568047 9.09214C0.852071 8.71344 1.23077 8.42941 1.70414 8.14539C1.79881 8.05072 1.89349 8.05072 1.98816 8.05072C2.08284 8.05072 2.27219 7.95604 2.36686 7.95604L2.84023 7.86136C3.12426 7.76669 3.31361 7.76669 3.59763 7.67202C4.26035 7.57734 5.01775 7.48267 5.68047 7.38799C6.43786 7.29332 7.19526 7.19865 7.95266 7.10397C8.80473 7.0093 9.75147 6.91462 10.6035 6.91462C11.7396 6.81994 12.7811 6.81995 13.9171 6.81995C14.6745 6.81995 15.5266 6.81994 16.3787 6.91462C16.8521 6.91462 17.4201 7.00929 17.8935 7.00929C18.5562 7.10397 19.2189 7.10397 19.8816 7.19865C20.9231 7.29332 21.9645 7.48267 23.0059 7.76669C23.6686 7.95604 24.3313 8.14539 25.0887 8.33474C25.5621 8.42941 26.0355 8.61876 26.5089 8.71344C27.0769 8.80811 27.5503 8.90279 28.1183 8.99746C28.5917 9.09214 29.0651 9.09213 29.5384 9.18681C30.9586 9.37616 32.3787 9.28148 33.7988 9.28148C34.5562 9.28148 35.4083 9.18681 36.1656 9.18681C37.0177 9.09213 37.8698 8.99746 38.7219 8.90278C39.1952 8.80811 39.7633 8.80811 40.2367 8.71344C40.6153 8.61876 40.8994 8.61876 41.2781 8.52409C41.3727 8.52409 41.2781 8.52409 41.2781 8.52409L41.3727 8.42941C41.6568 8.33474 42.0355 8.33474 42.3195 8.33474C42.6982 8.42941 42.9822 8.52409 43.2662 8.80811C43.3609 8.80811 43.3609 8.90279 43.3609 8.99746C43.2662 8.99746 43.0769 8.99746 43.0769 9.09214C42.9822 9.18681 42.8875 9.28148 42.6982 9.28148C42.6035 9.28148 42.6035 9.28148 42.5088 9.28148C42.2248 9.28148 41.9408 9.47083 41.7514 9.66018C41.4674 9.84953 41.1834 10.0389 40.8047 10.1336C40.6153 10.2282 40.3313 10.3229 40.142 10.3229C40.0473 10.3229 39.9526 10.4176 39.7633 10.4176C39.5739 10.5123 39.3846 10.5123 39.1952 10.6069C38.6272 10.7016 37.9645 10.891 37.3964 10.9856C37.3017 10.9856 37.2071 10.9856 37.1124 11.0803C37.3017 11.0803 37.4911 11.0803 37.5858 10.9856C37.7751 10.9856 37.8698 10.9856 38.1538 10.9856C37.3964 11.0803 36.639 11.175 35.9763 11.2696C35.5976 11.2696 35.1242 11.3643 34.7455 11.2696C34.7455 11.2696 34.6509 11.2696 34.5562 11.2696C34.3668 11.3643 34.2722 11.2696 34.0828 11.2696C33.9881 11.2696 33.8935 11.2696 33.7988 11.2696C33.5148 11.2696 33.2307 11.2696 32.9467 11.2696C32.7574 11.2696 32.568 11.2696 32.3787 11.2696C31.5266 11.2696 30.7692 11.2696 29.9171 11.175C29.8225 11.175 29.6331 11.175 29.6331 11.0803C29.6331 11.0803 29.5384 11.0803 29.5384 10.9856C29.4438 10.9856 29.2544 10.9856 29.1597 10.9856C28.8757 11.0803 28.5917 11.0803 28.3077 10.9856C28.213 10.9856 28.1183 10.9856 28.1183 10.891C28.0236 10.7016 27.8343 10.7016 27.6449 10.7963C27.5503 10.7963 27.5503 10.7963 27.3609 10.7963C27.5503 10.7963 27.6449 10.891 27.7396 10.891H27.6449C27.0769 10.7963 26.5089 10.7016 25.9408 10.6069C25.9408 10.6069 25.8461 10.6069 25.8461 10.5123C25.9408 10.5123 25.9408 10.5123 26.0355 10.5123C25.8461 10.3229 25.8461 10.3229 26.0355 10.3229ZM1.79881 13.8259C1.79881 13.8259 1.89349 13.8259 1.79881 13.8259C1.79881 13.7312 1.79881 13.7312 1.79881 13.7312V13.8259ZM23.3846 9.75485H23.4793C23.4793 9.75485 23.4793 9.75485 23.3846 9.75485C23.3846 9.75485 23.4793 9.75485 23.3846 9.75485Z" fill="#333333"/>
<path d="M38.5325 10.6069C38.6272 10.6069 38.6272 10.6069 38.7219 10.6069L39.4793 10.4176L39.9526 10.3229C39.858 10.3229 39.7633 10.3229 39.7633 10.4176C39.6686 10.4176 39.4793 10.5122 39.3846 10.5122C39.2899 10.5122 39.1006 10.6069 39.0059 10.6069C38.7219 10.5122 38.6272 10.5122 38.5325 10.6069Z" fill="#333333"/>
<path d="M37.9644 10.7016C37.9644 10.7016 38.0591 10.7016 37.9644 10.7016C38.0591 10.7016 38.0591 10.6069 38.0591 10.6069C38.0591 10.6069 38.0591 10.6069 37.9644 10.6069C37.8698 10.6069 37.8698 10.6069 37.7751 10.6069C37.7751 10.6069 37.6804 10.6069 37.6804 10.7016C37.7751 10.7016 37.8698 10.7016 37.9644 10.7016C37.8698 10.7016 37.8698 10.7016 37.9644 10.7016Z" fill="#333333"/>
<path d="M18.2722 31.4353C18.4615 31.4353 18.5562 31.53 18.7455 31.4353C18.8402 31.4353 18.9349 31.4353 19.0296 31.53C19.2189 31.53 19.4083 31.53 19.5976 31.6247C19.8816 31.7193 20.1657 31.7193 20.4497 31.814V31.7194C20.7337 31.814 21.0177 31.814 21.3018 31.9087C21.3018 31.9087 21.3964 31.9087 21.3964 32.0034L21.5858 32.098C21.6805 32.1927 21.6805 32.098 21.7751 32.098C21.9645 32.098 22.2485 32.098 22.4379 32.2874C22.5325 32.3821 22.7219 32.3821 23.0059 32.4768C22.8166 32.3821 22.7219 32.3821 22.6272 32.2874C22.9112 32.3821 23.1006 32.3821 23.3846 32.4768C23.4793 32.4768 23.4793 32.5714 23.4793 32.5714H23.3846C23.3846 32.5714 23.3846 32.5714 23.2899 32.5714H23.3846H23.4793C23.4793 32.5714 23.4793 32.5714 23.5739 32.5714C23.7633 32.5714 23.7633 32.5714 23.858 32.6661C23.9526 32.7608 23.9526 32.6661 24.0473 32.6661C24.2367 32.7608 24.3313 32.8554 24.5207 32.8554C24.5207 32.8554 24.6154 32.8554 24.71 32.8554C24.8047 32.9501 24.8994 32.8554 24.9941 32.8554H25.0887L25.1834 32.9501C25.4674 32.9501 25.6568 33.0448 25.9408 33.0448C26.1302 33.0448 26.3195 33.1395 26.4142 33.1395C26.5089 33.2341 26.6982 33.2341 26.8876 33.3288C27.0769 33.3288 27.2662 33.3288 27.4556 33.3288C27.6449 33.2341 27.7396 33.3288 27.929 33.3288C27.8343 33.4235 27.929 33.4235 28.0236 33.3288C28.1183 33.2341 28.3077 33.2341 28.497 33.3288H28.4023C28.4023 33.3288 28.4023 33.3288 28.497 33.3288H28.5917C28.781 33.3288 28.8757 33.4235 29.0651 33.4235C29.1597 33.4235 29.2544 33.4235 29.2544 33.4235H29.3491C29.4438 33.5182 29.6331 33.4235 29.7278 33.4235C29.7278 33.4235 29.8225 33.4235 29.9171 33.4235C30.0118 33.5182 30.2012 33.5182 30.2958 33.4235H30.4852C30.5799 33.4235 30.6745 33.4235 30.7692 33.4235C30.9586 33.3288 31.1479 33.4235 31.3373 33.5182C31.3373 33.5182 31.4319 33.5182 31.5266 33.5182C31.6213 33.4235 31.7159 33.4235 31.8106 33.4235C32.0946 33.4235 32.284 33.4235 32.568 33.4235C32.7574 33.4235 32.9467 33.4235 33.1361 33.4235H33.2307C33.3254 33.4235 33.5148 33.4235 33.6094 33.3288C33.7988 33.3288 34.0828 33.2341 34.2722 33.3288C34.3668 33.3288 34.5562 33.3288 34.6509 33.3288C34.6509 33.3288 34.7455 33.3288 34.8402 33.2341C35.0296 33.2341 35.3136 33.1395 35.5029 33.1395C35.5976 33.1395 35.6923 33.1395 35.8816 33.1395L36.2603 33.0448C36.8284 32.9501 37.3964 32.9501 37.9645 32.8554C38.3432 32.7608 38.7219 32.7608 39.1006 32.6661C39.5739 32.5714 39.9526 32.5714 40.426 32.4768C40.8047 32.3821 41.1834 32.2874 41.5621 32.1927C41.7514 32.0981 42.1301 32.0981 42.1301 32.1927C42.1301 32.0981 42.1301 32.0034 42.2248 32.098V32.0034L42.3195 31.9087C42.4142 31.814 42.4142 31.814 42.4142 31.7194C42.5088 31.7194 42.5088 31.7193 42.5088 31.6247C42.5088 31.6247 42.5088 31.4353 42.5088 31.3406C42.5088 31.1513 42.5088 30.8673 42.5088 30.6779C42.4142 30.4886 42.4142 30.2046 42.4142 29.9205C42.4142 29.7312 42.4142 29.5418 42.5088 29.3525C42.6035 29.2578 42.6035 29.0685 42.5088 28.9738C42.4142 28.8791 42.4142 28.7844 42.4142 28.5951C42.4142 28.2164 42.4142 27.743 42.4142 27.3643C42.4142 27.2696 42.4142 27.0803 42.5088 26.9856C42.5088 26.891 42.5088 26.891 42.5088 26.7963V26.7016C42.5088 26.4176 42.5088 26.1336 42.5088 25.8495C42.5088 25.6602 42.5088 25.3762 42.6035 25.1868C42.6982 24.9028 42.6982 24.7134 42.6035 24.4294C42.6035 24.3347 42.5088 24.1454 42.5088 24.0507C42.5088 23.8614 42.6035 23.8614 42.6035 23.7667C42.6035 23.672 42.5088 23.5773 42.5088 23.388C42.5088 23.388 42.5088 23.2933 42.5088 23.1987C42.5088 23.104 42.5088 23.0093 42.5088 23.0093C42.5088 22.9146 42.5088 22.82 42.5088 22.7253C42.5088 22.5359 42.4142 22.3466 42.5088 22.1572C42.5088 22.0626 42.5088 21.9679 42.5088 21.8732C42.4142 21.6839 42.5088 21.3998 42.4142 21.2105C42.4142 21.2105 42.4142 21.1158 42.4142 21.0211C42.4142 20.9265 42.4142 20.8318 42.4142 20.6424C42.4142 20.3584 42.3195 19.9797 42.5088 19.7904C42.5088 19.7904 42.5088 19.7904 42.5088 19.6957C42.5088 19.601 42.5088 19.5063 42.5088 19.5063C42.4142 19.4117 42.3195 19.2223 42.4142 18.9383C42.4142 18.8436 42.4142 18.7489 42.4142 18.6543C42.4142 18.4649 42.4142 18.3702 42.5088 18.2756C42.5088 18.2756 42.5088 18.1809 42.5088 18.0862C42.5088 17.9916 42.5088 17.8969 42.5088 17.7075C42.5088 17.5182 42.5088 17.4235 42.4142 17.2342C42.4142 17.1395 42.4142 17.0448 42.4142 16.8555C42.5088 16.7608 42.5088 16.5714 42.5088 16.3821C42.5088 16.2874 42.5088 16.0981 42.6035 16.0034C42.6982 15.9087 42.6035 15.7194 42.6035 15.6247C42.5088 15.53 42.6035 15.4353 42.6035 15.3407C42.6035 15.1513 42.6982 14.962 42.6982 14.8673C42.6035 14.7726 42.6035 14.6779 42.6035 14.5833C42.6035 14.1099 42.6035 13.6365 42.6035 13.2578C42.6035 13.1632 42.6035 13.0685 42.6035 12.9738C42.6035 12.8791 42.6035 12.6898 42.6035 12.5951C42.6035 12.5951 42.6982 12.6898 42.6982 12.7845C42.6982 12.6898 42.6982 12.5951 42.6982 12.5004C42.6982 12.5004 42.6982 12.4058 42.6035 12.4058C42.5088 12.4058 42.5088 12.4058 42.5088 12.3111C42.5088 12.2164 42.5088 12.2164 42.6035 12.1217C42.6035 12.0271 42.6982 12.0271 42.6982 11.9324C42.6982 11.5537 42.7929 11.175 42.7929 10.7963V10.7016C42.7929 10.5123 42.7929 10.3229 42.8875 10.2282C42.9822 10.1336 42.9822 9.94422 42.9822 9.75487C42.9822 9.75487 42.9822 9.75487 42.9822 9.6602C42.9822 9.56553 42.8875 9.37617 42.8875 9.2815C42.8875 9.2815 42.8875 9.18683 42.8875 9.09215C42.8875 9.09215 42.8875 9.09215 42.9822 9.09215L43.0769 9.18683V9.09215C43.0769 9.09215 43.0769 9.09215 43.1716 9.09215C43.1716 9.18683 43.2662 9.18683 43.2662 9.2815C43.2662 9.37617 43.3609 9.2815 43.4556 9.37617V9.2815C43.4556 9.18683 43.4556 9.18683 43.3609 9.09215C43.2662 8.90281 43.1716 8.71346 42.9822 8.61878C42.9822 8.61878 42.9822 8.52411 42.8875 8.52411C43.0769 8.52411 43.1716 8.61878 43.2662 8.71345C43.3609 8.80813 43.4556 8.99748 43.5503 9.18683C43.6449 9.2815 43.6449 9.37618 43.6449 9.47085C43.7396 9.47085 43.8343 9.56552 43.8343 9.75487C43.8343 9.84955 43.929 10.0389 43.929 10.2282C43.929 10.4176 44.0236 10.7016 44.0236 10.891C44.0236 10.9856 44.0236 11.0803 44.0236 11.2697C44.0236 11.5537 44.1183 11.8377 44.1183 12.0271C44.1183 12.4058 44.213 12.7845 44.213 13.1632C44.213 13.2578 44.213 13.6365 44.3077 13.9206C44.3077 14.2046 44.3077 14.5833 44.3077 14.8673C44.3077 15.6247 44.4023 16.3821 44.4023 17.1395C44.4023 17.2342 44.4023 17.2342 44.4023 17.3288C44.4023 17.6129 44.4023 17.8022 44.4023 18.0862C44.4023 18.2756 44.4023 18.5596 44.4023 18.7489C44.4023 19.2223 44.497 19.601 44.497 20.0744C44.497 20.4531 44.497 20.7371 44.497 21.0211C44.497 22.0626 44.497 23.0093 44.497 24.0507C44.497 24.8081 44.497 25.5655 44.497 26.4176C44.497 27.175 44.497 27.8377 44.497 28.5004C44.497 28.8791 44.497 29.2578 44.497 29.6365C44.497 30.1099 44.497 30.6779 44.497 31.246C44.497 31.3407 44.497 31.4353 44.497 31.53C44.4023 31.9087 44.3077 32.1927 44.3077 32.5714C44.3077 32.5714 44.213 32.6661 44.213 32.7608C44.1183 32.9501 44.0236 33.0448 43.929 33.2341C43.6449 33.6128 43.2662 33.9915 42.7929 34.1809C42.6982 34.2756 42.6035 34.2756 42.4142 34.2756L42.2248 34.3702H42.1301L41.6568 34.4649C41.3727 34.5596 41.1834 34.5596 40.8994 34.6543C40.2367 34.7489 39.4793 34.9383 38.8165 35.033C38.0591 35.1276 37.3017 35.2223 36.5443 35.317C35.6923 35.4117 34.7455 35.4117 33.8935 35.5063C32.7574 35.5063 31.6213 35.601 30.5799 35.5063C29.7278 35.5063 28.9704 35.4117 28.1183 35.317C27.6449 35.2223 27.0769 35.2223 26.6035 35.1276C25.9408 35.033 25.2781 34.9383 24.6154 34.7489C23.5739 34.5596 22.5325 34.2756 21.5858 33.9915C20.9231 33.8022 20.355 33.6128 19.6923 33.5182C19.2189 33.4235 18.7455 33.3288 18.1775 33.3288C17.6095 33.2341 17.0414 33.1395 16.4734 33.1395C15.9053 33.1395 15.5266 33.1395 14.9586 33.0448C13.5385 32.9501 12.1183 33.0448 10.6982 33.1395C9.84615 33.1395 9.08875 33.2341 8.23668 33.3288C7.38461 33.4235 6.53254 33.5182 5.5858 33.6128C5.11242 33.7075 4.54438 33.7075 4.071 33.8022C3.69231 33.8969 3.40828 33.8969 3.02958 33.9915C2.93491 33.9915 3.02958 33.9915 3.02958 33.9915H2.93491C2.55621 34.0862 2.27219 34.0862 1.98817 33.9915C1.60947 33.8969 1.32545 33.7075 1.04142 33.5182C1.04142 33.5182 0.946747 33.4235 0.946747 33.3288C1.04142 33.3288 1.1361 33.3288 1.23077 33.2341C1.32544 33.1395 1.42012 33.0448 1.60947 33.0448C1.70414 33.0448 1.70414 33.0448 1.79882 33.0448C2.08284 33.0448 2.36686 32.8554 2.55621 32.7608C2.93491 32.5714 3.21893 32.3821 3.50296 32.2874C3.69231 32.1927 3.97633 32.098 4.16568 32.098C4.26035 32.098 4.35503 32.0034 4.54438 32.0034C4.73373 32.0034 4.92307 31.9087 5.11242 31.9087C5.68047 31.814 6.34319 31.6247 6.91124 31.53C7.00591 31.53 7.10059 31.53 7.19526 31.4353C7.00591 31.4353 6.81656 31.4353 6.72189 31.53C6.53254 31.53 6.43787 31.53 6.15384 31.53C6.91124 31.4353 7.57396 31.3407 8.33136 31.246C8.71005 31.246 9.18343 31.1513 9.56212 31.246C9.56212 31.246 9.6568 31.246 9.75147 31.246C9.84615 31.246 10.0355 31.246 10.2248 31.246C10.3195 31.246 10.4142 31.246 10.5089 31.246C10.7929 31.246 11.0769 31.246 11.3609 31.246C11.5503 31.246 11.7396 31.246 11.929 31.246C12.6864 31.246 13.5385 31.246 14.2958 31.246C14.3905 31.246 14.5799 31.246 14.5799 31.3406H14.6745C14.7692 31.3406 14.9586 31.3406 15.0532 31.3406C15.3373 31.246 15.6213 31.246 15.9053 31.246C16 31.246 16.0947 31.246 16.0947 31.3406C16.1893 31.4353 16.3787 31.4353 16.568 31.4353C16.6627 31.4353 16.6627 31.4353 16.7574 31.4353C16.568 31.4353 16.4734 31.4353 16.3787 31.3406H16.4734C17.0414 31.3406 17.6095 31.4353 18.1775 31.53H18.2722C18.1775 31.53 18.1775 31.53 18.0828 31.53C18.4615 31.4353 18.4615 31.4353 18.2722 31.4353ZM42.5088 28.3111C42.5088 28.4057 42.5088 28.4057 42.5088 28.4057V28.3111ZM20.9231 31.814H20.8284C20.8284 31.814 20.8284 31.9087 20.9231 31.814C20.9231 31.9087 20.9231 31.9087 20.9231 31.814Z" fill="#333333"/>
<path d="M5.86982 31.6248C5.77515 31.6248 5.77515 31.6248 5.68048 31.6248L4.92308 31.8141C4.73373 31.8141 4.63906 31.9088 4.44971 31.9088C4.54438 31.9088 4.63906 31.9088 4.63906 31.9088C4.73373 31.9088 4.92308 31.8141 5.01775 31.8141C5.11243 31.8141 5.30178 31.7194 5.39645 31.7194C5.5858 31.7194 5.77515 31.7194 5.86982 31.6248Z" fill="#333333"/>
<path d="M6.43788 31.5301C6.43788 31.5301 6.3432 31.5301 6.43788 31.5301C6.3432 31.5301 6.3432 31.6248 6.3432 31.6248C6.3432 31.6248 6.3432 31.6248 6.43788 31.6248C6.53255 31.6248 6.53255 31.6248 6.62723 31.6248C6.62723 31.6248 6.7219 31.6248 6.7219 31.5301C6.62723 31.5301 6.53255 31.5301 6.43788 31.5301Z" fill="#333333"/>
<path d="M21.7752 15.4353C21.6805 15.4353 21.6805 15.4353 21.5858 15.53H21.4912C21.3965 15.53 21.3018 15.6247 21.3018 15.6247C21.2071 15.6247 21.1125 15.7193 21.0178 15.7193L21.1125 15.814C21.0178 15.814 20.9231 15.9087 20.8284 15.9087C20.8284 15.9087 20.8284 15.9087 20.7338 15.9087H20.6391C20.6391 15.9087 20.5444 15.9087 20.6391 16.0034C20.5444 16.098 20.5444 16.1927 20.4497 16.098C20.3551 16.098 20.3551 16.098 20.2604 16.1927C20.3551 16.1927 20.3551 16.1927 20.4497 16.1927C20.3551 16.2874 20.2604 16.2874 20.2604 16.3821H20.1657C20.1657 16.3821 20.1657 16.3821 20.1657 16.2874C20.1657 16.2874 20.1657 16.2874 20.1657 16.1927V16.2874C20.1657 16.3821 20.1657 16.3821 20.071 16.3821C19.9764 16.3821 19.9764 16.382 20.071 16.4767C19.9764 16.4767 19.8817 16.4767 19.8817 16.5714V16.6661C19.787 16.6661 19.787 16.7608 19.8817 16.7608H19.787C19.787 16.8554 19.6923 16.9501 19.5977 17.0448C19.5977 17.1395 19.503 17.1394 19.4083 17.2341C19.3136 17.2341 19.3136 17.3288 19.219 17.4235C19.1243 17.5181 19.1243 17.6128 19.1243 17.7075C19.1243 17.8022 19.1243 17.8022 19.0296 17.8968C18.9349 17.8022 18.9349 17.8968 18.9349 17.8968C19.0296 17.9915 19.0296 18.0862 18.9349 18.0862C18.8403 18.0862 18.8403 18.1809 18.7456 18.2755V18.3702V18.4649C18.6509 18.4649 18.6509 18.5596 18.6509 18.6542V18.7489C18.5562 18.7489 18.5562 18.8436 18.5562 18.9383V19.0329V19.1276C18.5562 19.2223 18.5562 19.317 18.3669 19.317C18.3669 19.317 18.2722 19.4116 18.3669 19.4116C18.4616 19.4116 18.4616 19.5063 18.4616 19.601C18.4616 19.6957 18.4616 19.7903 18.3669 19.885C18.3669 19.9797 18.2722 20.0744 18.2722 20.0744C18.2722 20.169 18.2722 20.169 18.2722 20.2637C18.2722 20.3584 18.2722 20.4531 18.1776 20.5477C18.0829 20.5477 18.0829 20.6424 18.1776 20.7371V20.8318C18.1776 20.9264 18.1776 21.0211 18.1776 21.1158C18.1776 21.1158 18.1776 21.2105 18.1776 21.3051C18.1776 21.3998 18.1776 21.3998 18.1776 21.4945C18.1776 21.7785 18.1776 21.9678 18.2722 22.2519C18.2722 22.4412 18.2722 22.5359 18.3669 22.7252C18.3669 22.9146 18.3669 23.1039 18.4616 23.2933C18.5562 23.4826 18.5562 23.5773 18.6509 23.7667C18.6509 23.8613 18.7456 23.956 18.6509 24.1454C18.7456 24.1454 18.8403 24.1454 18.8403 24.24C18.8403 24.24 18.9349 24.24 18.9349 24.3347C19.0296 24.4294 19.0296 24.6187 19.1243 24.7134C19.1243 24.7134 19.1243 24.7134 19.1243 24.8081C19.0296 24.9028 19.1243 24.9028 19.1243 24.9028L19.219 24.9974C19.3136 25.0921 19.3136 25.1868 19.4083 25.1868C19.503 25.1868 19.5977 25.2815 19.6923 25.3761C19.787 25.4708 19.787 25.4708 19.787 25.5655C19.787 25.6602 19.787 25.6601 19.8817 25.6601C19.9764 25.6601 19.9764 25.6601 20.071 25.6601C20.1657 25.7548 20.3551 25.8495 20.4497 25.9442L20.5444 26.0389C20.5444 26.0389 20.5444 26.0389 20.6391 26.0389C20.6391 26.0389 20.6391 26.0389 20.7338 26.0389C20.8284 26.0389 20.9231 26.1335 21.1125 26.1335C21.2071 26.1335 21.3018 26.2282 21.3018 26.3229C21.3965 26.4176 21.4912 26.4176 21.5858 26.3229C21.6805 26.3229 21.6805 26.3229 21.7752 26.3229C21.8699 26.3229 21.8699 26.4175 21.8699 26.4175C21.9645 26.4175 21.9645 26.3229 22.0592 26.3229C22.0592 26.3229 22.0592 26.3229 22.1539 26.3229H22.2486H22.3432C22.4379 26.2282 22.4379 26.2282 22.5326 26.3229H22.6273C22.7219 26.2282 22.8166 26.3229 22.9113 26.2282C22.9113 26.2282 22.9113 26.2282 23.006 26.2282C23.1006 26.2282 23.1006 26.2282 23.1006 26.2282C23.1953 26.1335 23.29 26.1335 23.4793 26.2282H23.574C23.574 26.0388 23.6687 26.0389 23.7633 26.0389H23.858C23.9527 26.0389 23.9527 25.9442 24.0474 26.0389C24.0474 26.0389 24.0474 26.0389 24.142 26.0389C24.142 26.0389 24.2367 26.0388 24.2367 25.9442C24.3314 25.9442 24.3314 25.8495 24.3314 25.7548C24.3314 25.6602 24.4261 25.6601 24.4261 25.6601C24.5207 25.6601 24.5207 25.6602 24.6154 25.5655C24.6154 25.5655 24.7101 25.4708 24.8048 25.4708C24.8994 25.4708 24.8994 25.3761 24.8994 25.3761C24.8994 25.2815 24.8994 25.2815 24.9941 25.2815C25.0888 25.1868 25.1835 25.2815 25.2781 25.2815C25.2781 25.1868 25.2781 25.1868 25.2781 25.0921C25.3728 24.9974 25.5622 24.8081 25.6568 24.7134C25.7515 24.6187 25.7515 24.6187 25.7515 24.5241C25.7515 24.4294 25.8462 24.3347 25.9409 24.24C25.9409 24.24 25.9409 24.3347 25.9409 24.4294C26.0355 24.3347 26.0355 24.24 26.0355 24.24V24.1454C25.9409 24.1454 25.9409 24.0507 26.0355 24.0507C26.0355 24.0507 26.1302 23.956 26.2249 23.956C26.3196 23.956 26.3196 23.8613 26.4142 23.8613C26.6036 23.5773 26.6983 23.2933 26.8876 23.0093V22.9146C26.8876 22.7252 26.9823 22.6306 27.077 22.4412C27.1716 22.2519 27.2663 22.1572 27.361 21.9678C27.361 21.9678 27.361 21.9678 27.361 21.8732C27.361 21.7785 27.4556 21.5891 27.4556 21.4945C27.4556 21.3998 27.4557 21.3998 27.5503 21.3051C27.5503 21.3051 27.5503 21.3051 27.5503 21.3998C27.5503 21.4945 27.5503 21.4945 27.5503 21.5891C27.5503 21.5891 27.5503 21.4945 27.645 21.5891C27.645 21.5891 27.645 21.5891 27.645 21.6838C27.645 21.7785 27.645 21.7785 27.645 21.8732C27.645 21.9678 27.7397 21.9679 27.7397 22.0625L27.8343 21.9678C27.8343 21.8732 27.929 21.8732 27.929 21.7785C27.929 21.5892 28.0237 21.3998 28.0237 21.2104V21.1158C28.1184 21.2104 28.1184 21.3998 28.1184 21.4945C28.1184 21.6838 28.1184 21.7785 28.1184 21.9678C28.1184 22.0625 28.1184 22.1572 28.0237 22.1572C28.1184 22.2519 28.1184 22.3465 28.1184 22.4412C28.1184 22.5359 28.1184 22.6306 28.1184 22.8199C28.1184 23.0093 28.1184 23.2933 28.0237 23.4826C28.0237 23.5773 27.929 23.7667 27.929 23.8613C27.8343 24.1454 27.7397 24.4294 27.645 24.7134C27.4556 25.0921 27.2663 25.5655 27.077 25.9442L26.9823 26.1335C26.7929 26.4175 26.6036 26.6069 26.4142 26.8909C26.1302 27.2696 25.7515 27.5536 25.3728 27.8377L25.2781 27.9323C25.1835 28.027 24.9941 28.1217 24.8048 28.1217C24.6154 28.1217 24.5207 28.2164 24.4261 28.311C24.142 28.5004 23.9527 28.5951 23.6687 28.6897C23.4793 28.7844 23.29 28.7844 23.1006 28.7844C22.4379 28.8791 21.7752 28.8791 21.1125 28.7844C20.6391 28.6897 20.071 28.5004 19.6923 28.311C19.503 28.2164 19.3136 28.1217 19.1243 27.9323C18.9349 27.8377 18.7456 27.6483 18.5562 27.5536C18.3669 27.3643 18.1776 27.2696 18.0829 27.0803C17.7989 26.8909 17.6095 26.6069 17.4202 26.3229L17.3255 26.2282C17.3255 26.0388 17.2308 25.9442 17.1361 25.9442C17.1361 25.9442 17.1361 25.9442 17.1361 25.8495C17.1361 25.7548 17.0415 25.7548 17.0415 25.6601C16.8521 25.3761 16.7574 24.9974 16.5681 24.7134C16.4734 24.6187 16.4734 24.4294 16.3787 24.3347C16.2841 23.956 16.1894 23.5773 16.0947 23.1986C16 22.8199 16 22.3465 15.9054 21.9678C15.9054 21.4945 15.9054 20.9264 16 20.4531C16.0947 19.7903 16.1894 19.2223 16.3787 18.6542C16.4734 18.1809 16.6628 17.8022 16.8521 17.4235C16.9468 17.1394 17.1361 16.9501 17.2308 16.6661C17.4202 16.3821 17.7042 16.098 17.8935 15.7193C18.2722 15.246 18.7456 14.8673 19.219 14.4886C19.5977 14.2045 19.9764 14.0152 20.3551 13.8258C20.6391 13.7312 20.9231 13.6365 21.3018 13.5418C21.6805 13.4471 22.0592 13.4471 22.3432 13.4471C22.6273 13.4471 23.006 13.4471 23.29 13.5418C24.2367 13.7312 25.0888 14.1099 25.7515 14.6779C26.1302 14.9619 26.5089 15.3406 26.7929 15.7193C27.077 16.098 27.361 16.5714 27.5503 17.0448C27.645 17.1395 27.645 17.3288 27.7397 17.4235C27.8343 17.7075 27.929 17.9915 28.0237 18.2755C28.1184 18.6542 28.213 19.0329 28.213 19.4116C28.213 19.6957 28.3077 19.9797 28.3077 20.3584C28.3077 20.6424 28.213 20.9264 28.213 21.2104C28.213 21.3051 28.213 21.3051 28.1184 21.3998C28.0237 21.3051 28.0237 21.2104 27.8343 21.2104C27.645 21.2104 27.5503 21.1158 27.5503 21.0211C27.5503 20.9264 27.4556 20.9264 27.4556 20.8318C27.361 20.5477 27.1716 20.2637 26.9823 19.9797C26.8876 19.6957 26.6983 19.4116 26.5089 19.1276C26.3196 18.7489 26.1302 18.3702 25.9409 18.0862C25.7515 17.8968 25.6568 17.7075 25.4675 17.4235C25.4675 17.4235 25.4675 17.3288 25.3728 17.3288C25.3728 17.4235 25.4675 17.4235 25.4675 17.5181C25.5622 17.6128 25.5622 17.6128 25.5622 17.7075C25.3728 17.4235 25.1835 17.2341 25.0888 16.9501C24.9941 16.7607 24.8994 16.7608 24.8048 16.5714C24.8048 16.5714 24.8048 16.5714 24.7101 16.5714C24.6154 16.5714 24.6154 16.4767 24.6154 16.4767L24.5207 16.3821C24.4261 16.2874 24.3314 16.1927 24.2367 16.1927C24.142 16.1927 24.142 16.098 24.0474 16.098C23.7633 15.9087 23.4793 15.814 23.1953 15.7193C23.1953 15.7193 23.1006 15.7193 23.1006 15.6247C23.1006 15.6247 23.1006 15.6247 23.1006 15.53C23.0059 15.53 23.0059 15.53 22.9113 15.53C22.8166 15.6247 22.6273 15.6247 22.5326 15.6247C22.5326 15.6247 22.4379 15.6247 22.4379 15.53C22.4379 15.4353 22.3432 15.4353 22.2486 15.4353H22.1539C22.2486 15.4353 22.2486 15.4353 22.3432 15.4353C22.1539 15.4353 21.8699 15.4353 21.6805 15.53V15.4353C21.6805 15.53 21.6805 15.53 21.7752 15.4353ZM19.9764 26.0389C19.9764 26.0389 19.9764 25.9442 19.9764 26.0389C19.9764 25.9442 19.8817 25.9442 19.9764 26.0389Z" fill="#333333"/>
<path d="M25.6568 17.8968C25.6568 17.9915 25.6568 17.9915 25.6568 17.8968C25.7515 18.0861 25.8462 18.1808 25.8462 18.2755C25.9409 18.3702 25.9409 18.4648 26.0355 18.5595C26.0355 18.4648 26.0355 18.4648 25.9409 18.3702C25.9409 18.2755 25.8462 18.2755 25.8462 18.1808C25.8462 18.0861 25.7515 18.0861 25.7515 17.9915C25.7515 17.9915 25.6568 17.9915 25.6568 17.8968Z" fill="#333333"/>
<path d="M25.5622 17.7075C25.5622 17.7075 25.5622 17.8022 25.5622 17.7075C25.5622 17.8022 25.5622 17.8022 25.5622 17.7075C25.6568 17.7075 25.5622 17.7075 25.5622 17.7075C25.5622 17.6129 25.5622 17.6129 25.5622 17.7075C25.4675 17.7075 25.4675 17.6129 25.5622 17.7075C25.4675 17.7075 25.4675 17.7075 25.5622 17.7075Z" fill="#333333"/>
</svg>
