<svg width="48" height="48" viewBox="0 0 48 48" fill="none" xmlns="http://www.w3.org/2000/svg">
<path d="M19.7 13.716C19.7 12.516 19.9 11.316 20.5 10.316C21.1 9.31598 22 8.41598 23 7.81598C24 7.21598 25.2 7.016 26.4 7.016C28.3 7.016 30.1 7.61596 31.3 8.91596C32.5 10.116 33.2 11.916 33.2 13.816C33.2 15.816 33.2 15.816 33.2 17.716C33.2 19.616 34.4 20.116 33.2 21.516C32.1 22.816 31.6 21.616 29.9 21.616C28.2 21.616 28.2 21.416 26.5 21.416C24.8 21.416 24.8 21.616 23.1 21.616C21.4 21.616 20.9 22.816 19.7 21.516C18.4 20.016 19.6 19.616 19.6 17.616C19.6 15.716 19.7 15.716 19.7 13.716ZM41.6 21.516C40.6 21.516 40.6 21.616 39.6 21.616C38.9 21.616 38.2 20.916 38.2 20.216C38.2 18.616 38.4 18.616 38.4 17.016C38.4 15.416 38.2 15.416 38.2 13.816C38.2 12.716 38.2 11.716 37.9 10.716C37.6 9.71601 37.3 8.71598 36.8 7.81598C36.3 6.91598 35.7 6.01598 34.9 5.31598C34.2 4.61598 33.2 4.116 32.3 3.516C31.4 3.016 30.5 2.41601 29.5 2.21601C28.5 1.91601 27.5 2.016 26.4 2.016C25.1 2.016 23.8 2.116 22.7 2.516C21.5 2.916 20.4 3.61596 19.4 4.41596C18.4 5.21596 17.6 6.11601 16.8 7.21601C16.1 8.21601 15.4 9.316 15 10.516C14.6 11.716 14.4 13.016 14.4 14.216C14.4 15.716 14.5 15.716 14.5 17.216C14.5 18.716 14.5 18.716 14.5 20.216C14.5 20.916 13.9 21.616 13.1 21.616C12.1 21.616 12.1 21.616 11.1 21.616C10.2 21.616 9.40002 22.316 9.40002 23.216C9.40002 25.116 9.5 25.116 9.5 26.916C9.5 28.816 9.5 28.816 9.5 30.616C9.5 32.516 9.30005 32.516 9.30005 34.316C9.30005 36.216 9.30005 36.216 9.30005 38.016C9.30005 39.816 9.30005 39.916 9.30005 41.716C9.30005 42.616 10.1 43.516 11 43.516C12.9 43.516 12.9 43.416 14.8 43.416C16.7 43.416 16.7 43.416 18.6 43.416C20.5 43.416 20.5 43.616 22.4 43.616C24.3 43.616 24.3 43.616 26.2 43.616C28.1 43.616 28.1 43.516 30 43.516C31.9 43.516 31.9 43.616 33.8 43.616C35.7 43.616 35.7 43.416 37.6 43.416C39.5 43.416 39.5 43.516 41.4 43.516C42.3 43.516 43.1 42.716 43.1 41.816C43.1 39.916 43 39.916 43 38.116C43 36.216 43 36.216 43 34.416C43 32.516 43 32.516 43 30.716C43 28.816 43 28.816 43 27.016C43 25.216 42.9 25.116 42.9 23.316C43.2 22.316 42.6 21.516 41.6 21.516Z" fill="#C3F4C9"/>
<path d="M19.9999 32.9159C20.0999 33.0159 20.0999 33.0159 19.9999 33.1159C19.9999 33.1159 19.9999 33.1159 19.9999 33.2159C19.9999 33.2159 20 33.3159 19.9 33.2159C19.9 33.2159 19.9 33.2159 19.8 33.3159C19.8 33.3159 19.8 33.3159 19.8 33.2159C19.8 33.2159 19.8 33.1159 19.9 33.1159C19.8 33.2159 19.8 33.2159 19.7 33.2159C19.7 33.1159 19.8 33.0159 19.7 32.9159C19.7 32.9159 19.7 32.9159 19.7 33.0159C19.7 33.1159 19.5999 33.1159 19.4999 33.2159C19.4999 33.2159 19.4 33.2159 19.4 33.1159C19.4 33.0159 19.5 33.0159 19.4 32.9159C19.4 32.9159 19.3 33.0159 19.3 32.9159C19.3 32.8159 19.2 32.8159 19.2 32.7159C19.2 32.6159 19.2 32.6159 19.1 32.5159C19.1 32.4159 19.1 32.3159 19.1 32.2159C19.1 32.1159 19.1 32.1159 19.1 32.0159V31.9159V31.8159C19.1 31.6159 19.1 31.5159 19.1 31.3159C19.1 31.2159 19.1 31.0159 19.1 30.9159C19.1 30.6159 19.1 30.5159 19.1 30.2159V30.1159V30.0159V29.9159C19.1 29.8159 19.1 29.8159 19.2 29.7159V29.6159C19.2 29.5159 19.3 29.4159 19.3 29.2159C19.3 29.1159 19.3 29.1159 19.4 29.0159C19.4 28.9159 19.5 28.7159 19.6 28.6159C19.7 28.5159 19.7 28.4159 19.8 28.4159C19.9 28.3159 19.8999 28.3159 19.9999 28.2159C20.0999 28.1159 20.1 28.1159 20.2 28.0159L20.3 27.9159C20.4 27.8159 20.3999 27.8159 20.4999 27.7159C20.5999 27.6159 20.7 27.5159 20.9 27.5159H20.9999C21.0999 27.5159 21.1 27.5159 21.2 27.4159C21.2 27.4159 21.2 27.4159 21.3 27.4159C21.4 27.4159 21.6 27.3159 21.7 27.3159H21.8C21.9 27.3159 21.9 27.3159 21.9 27.3159H21.9999H22.1H22.2H22.3C22.4 27.3159 22.6 27.3159 22.7 27.3159C22.8 27.3159 23 27.3159 23.1 27.4159C23.4 27.5159 23.6 27.6159 23.9 27.7159C23.9 27.7159 23.9999 27.7159 23.9999 27.8159C23.9999 27.8159 24.1 27.8159 24.1 27.9159C24.3 28.0159 24.5 28.2159 24.6 28.4159C24.6 28.5159 24.7 28.5159 24.7 28.6159C24.7 28.6159 24.7 28.7159 24.8 28.7159V28.8159C24.9 28.9159 24.8999 28.9159 24.9999 29.0159L25.1 29.1159C25.1 29.2159 25.2 29.3159 25.2 29.4159C25.2 29.5159 25.2 29.6159 25.3 29.7159C25.3 29.8159 25.3 29.8159 25.4 30.0159C25.4 30.1159 25.4 30.1159 25.4 30.2159C25.4 30.3159 25.4 30.5159 25.4 30.6159C25.4 30.7159 25.4 30.8159 25.4 30.9159C25.4 31.0159 25.4 31.1159 25.4 31.2159C25.4 31.3159 25.3 31.5159 25.3 31.6159C25.3 31.8159 25.2 32.1159 25.2 32.3159C25.2 32.4159 25.2 32.4159 25.2 32.5159C25.2 32.5159 25.2 32.6159 25.2 32.7159V32.8159V32.9159V33.0159V33.1159C25.2 33.3159 25.0999 33.4159 24.9999 33.6159C24.9999 33.6159 25 33.7159 24.9 33.7159C24.9 33.8159 24.8 33.9159 24.8 33.9159C24.5 34.5159 23.9 34.9159 23.3 35.1159C23.1 35.2159 22.9 35.2159 22.7 35.1159C22.6 35.1159 22.5999 35.1159 22.4999 35.0159C22.3999 35.0159 22.4 34.9159 22.4 34.9159C22.4 34.8159 22.4999 34.7159 22.4999 34.6159C22.4999 34.5159 22.6 34.5159 22.6 34.5159C22.6 34.4159 22.4999 34.4159 22.4999 34.3159V34.2159C22.4999 34.1159 22.4999 34.1159 22.4999 34.1159H22.6H22.7L22.8 34.0159C22.9 33.9159 22.8999 33.9159 22.9999 33.8159C22.9999 33.8159 23.1 33.8159 23.1 33.7159C23.2 33.6159 23.3 33.5159 23.4 33.4159C23.5 33.4159 23.4999 33.3159 23.4999 33.2159C23.4999 33.1159 23.5 33.1159 23.6 33.1159C23.6 33.0159 23.6 33.0159 23.6 32.9159V32.8159C23.6 32.7159 23.6 32.6159 23.6 32.5159C23.6 32.4159 23.6 32.3159 23.6 32.2159V31.7159C23.6 31.6159 23.6 31.4159 23.6 31.3159C23.6 31.2159 23.6 31.2159 23.6 31.1159V31.0159V30.9159C23.6 30.8159 23.6 30.8159 23.6 30.8159C23.6 30.8159 23.6 30.8159 23.6 30.7159V30.6159C23.6 30.5159 23.6 30.5159 23.6 30.4159C23.6 30.4159 23.6 30.4159 23.6 30.3159C23.6 30.3159 23.6 30.3159 23.6 30.2159C23.6 30.2159 23.5999 30.1159 23.4999 30.1159L23.4 30.0159C23.4 30.0159 23.4 30.0159 23.4 29.9159C23.4 29.8159 23.3 29.8159 23.3 29.8159L23.2 29.7159C23.2 29.7159 23.2 29.7159 23.1 29.6159C23 29.6159 23 29.6159 22.9 29.5159C22.9 29.4159 22.9 29.5159 22.8 29.5159C22.8 29.5159 22.8 29.5159 22.7 29.5159C22.6 29.5159 22.5999 29.5159 22.4999 29.5159C22.4999 29.5159 22.5 29.5159 22.4 29.5159C22.4 29.6159 22.4 29.5159 22.3 29.5159C22.3 29.6159 22.3 29.5159 22.3 29.5159H22.2C22.2 29.5159 22.2 29.6159 22.1 29.5159C22.1 29.5159 22.1 29.6159 22.1 29.5159C22.1 29.5159 21.9999 29.5159 21.9999 29.6159C21.9999 29.6159 22 29.6159 21.9 29.6159C21.9 29.6159 21.9 29.6159 21.8 29.6159C21.8 29.6159 21.8 29.7159 21.8 29.6159C21.8 29.7159 21.8 29.7159 21.7 29.8159C21.8 29.8159 21.7 29.8159 21.7 29.9159C21.7 29.9159 21.6 29.9159 21.7 30.0159C21.7 30.0159 21.6 30.0159 21.7 30.0159C21.6 30.0159 21.7 30.1159 21.7 30.1159V30.2159C21.7 30.2159 21.7 30.2159 21.7 30.3159C21.7 30.3159 21.7 30.3159 21.6 30.4159C21.7 30.4159 21.7 30.5159 21.6 30.6159C21.6 30.7159 21.6 30.7159 21.6 30.8159C21.6 30.9159 21.7 31.0159 21.6 31.1159C21.6 31.2159 21.6 31.2159 21.6 31.3159V31.4159C21.6 31.5159 21.6 31.5159 21.6 31.6159C21.6 31.7159 21.5 31.7159 21.6 31.8159C21.6 32.0159 21.5999 32.2159 21.4999 32.4159C21.4999 32.4159 21.5 32.5159 21.4 32.5159C21.4 32.5159 21.3 32.5159 21.4 32.6159C21.4 32.6159 21.3999 32.6159 21.4999 32.6159C21.4999 32.6159 21.5 32.6159 21.4 32.6159C21.4 32.7159 21.3 32.7159 21.2 32.7159C21.1 32.8159 21.1 32.7159 21.1 32.7159C21.1 32.8159 21.1 32.9159 21.1 33.0159C20.1 33.0159 20.0999 33.0159 19.9999 32.9159C19.8999 32.9159 19.8999 32.9159 19.9999 32.9159C19.8999 32.9159 19.8999 32.9159 19.9999 32.9159C19.8999 33.0159 19.8999 32.9159 19.9999 32.9159Z" fill="#333333"/>
<path d="M10.2 17.4159C10.3 17.5159 10.3 17.516 10.2 17.616C10.2 17.616 10.3 17.616 10.2 17.716C10.2 17.716 10.2 17.816 10.1 17.716C10.1 17.716 10.0999 17.816 9.99994 17.816C9.99994 17.816 9.99994 17.816 9.99994 17.716V17.616C9.89994 17.716 9.89999 17.716 9.79999 17.716C9.79999 17.616 9.89999 17.5159 9.79999 17.4159C9.79999 17.4159 9.79999 17.416 9.79999 17.516C9.79999 17.616 9.69998 17.616 9.59998 17.716C9.59998 17.716 9.49994 17.716 9.49994 17.616C9.49994 17.516 9.59994 17.5159 9.49994 17.4159C9.49994 17.4159 9.39996 17.5159 9.39996 17.4159C9.39996 17.3159 9.29999 17.316 9.29999 17.216C9.29999 17.116 9.29995 17.116 9.19995 17.016C9.19995 16.916 9.09998 16.816 9.09998 16.716C9.09998 16.616 9.09998 16.616 9.09998 16.516V16.4159V16.316C9.09998 16.116 9.09998 15.916 9.09998 15.716C9.09998 15.516 9.09998 15.416 9.09998 15.216C9.09998 14.916 9.09995 14.7159 9.19995 14.4159C9.19995 14.3159 9.19999 14.216 9.29999 14.116C9.39999 14.016 9.39996 13.916 9.39996 13.716C9.39996 13.616 9.39994 13.416 9.49994 13.316C9.59994 13.116 9.59995 12.916 9.69995 12.716V12.616C9.69995 12.516 9.69999 12.416 9.79999 12.316C9.89999 11.916 9.99995 11.516 10.2 11.216C10.3 11.016 10.4 10.816 10.4 10.616C10.6 10.216 10.7999 9.81594 10.9999 9.41594C11.0999 9.11594 11.2999 8.91595 11.4999 8.61595C11.6999 8.41595 11.7999 8.11594 11.9999 7.91594C12.1999 7.71594 12.2999 7.51597 12.4999 7.31597C12.4999 7.21597 12.6 7.21599 12.6 7.21599C12.7 7.11599 12.8999 6.91597 12.9999 6.81597C13.1999 6.61597 13.4 6.41599 13.6 6.21599C13.9 5.91599 14.3 5.61594 14.6 5.41594C14.7 5.41594 14.7 5.31597 14.8 5.31597C15 5.21597 15.1 5.11598 15.3 5.01598C15.3 5.01598 15.3999 4.91594 15.4999 4.91594C15.8999 4.71594 16.3 4.51597 16.7 4.31597C16.8 4.31597 16.9 4.21599 16.9 4.21599C17.1 4.21599 17.2 4.11595 17.3 4.11595C17.4 4.11595 17.5 4.01598 17.6 4.01598C17.7 4.01598 17.7 3.91594 17.8 3.91594C17.9 3.91594 18 3.91597 18.1 3.81597C18.3 3.81597 18.3999 3.81599 18.4999 3.71599C18.8999 3.51599 19.4 3.51594 19.9 3.41594C20.3 3.31594 20.5999 3.31597 20.9999 3.31597C21.7999 3.21597 22.6999 3.21597 23.4999 3.31597C23.5999 3.31597 23.7 3.31597 23.9 3.31597C24 3.31597 24.1 3.31594 24.2 3.41594C24.6 3.51594 24.9 3.51595 25.3 3.61595L26.3 3.91594C26.5 4.01594 26.7 4.11599 26.9 4.21599C27 4.31599 27.2 4.31594 27.3 4.41594C27.4 4.41594 27.5 4.51598 27.6 4.51598C27.9 4.61598 28.1 4.81594 28.3 4.91594C28.5 5.01594 28.6 5.11599 28.8 5.21599C29 5.41599 29.2999 5.51599 29.4999 5.71599C29.6999 5.91599 29.9 6.11599 30.1 6.21599C30.3 6.41599 30.6 6.61597 30.8 6.81597C31 7.01597 31.1 7.11599 31.2 7.21599C31.5 7.51599 31.8 7.91597 32.1 8.31597C32.3 8.61597 32.5 8.91597 32.7 9.31597C32.9 9.71597 33.2 10.116 33.3 10.516C33.6 11.116 33.7999 11.716 33.9999 12.316C34.0999 12.816 34.3 13.316 34.4 13.816C34.5 14.316 34.6 14.8159 34.6 15.4159C34.6 15.7159 34.6 16.016 34.6 16.316C34.6 16.516 34.6 16.716 34.6 17.016C34.6 17.116 34.6 17.216 34.6 17.216C34.6 17.316 34.6 17.416 34.6 17.516C34.6 17.616 34.6 17.8159 34.6 17.9159C34.6 18.0159 34.6 18.116 34.6 18.216C34.6 18.716 34.6 19.316 34.6 19.816C34.6 19.916 34.6 20.116 34.6 20.216C34.6 20.316 34.6 20.416 34.6 20.516C34.6 21.016 34.5999 21.5159 34.4999 21.9159C34.4999 22.1159 34.4 22.2159 34.3 22.4159L34.2 22.516C34.2 22.616 34.1 22.616 34.1 22.616C34 22.616 33.9 22.516 33.8 22.516C33.7 22.516 33.7 22.4159 33.7 22.4159C33.6 22.4159 33.5999 22.5159 33.4999 22.4159C33.4999 22.4159 33.4 22.416 33.4 22.516C33.3 22.516 33.3 22.5159 33.3 22.4159C33.3 22.3159 33.3 22.316 33.3 22.316V22.216C33.3 22.116 33.2 22.116 33.2 22.016C33.1 21.816 33.1 21.816 33.1 21.616V21.516C33.1 21.316 33.0999 21.116 32.9999 20.816C32.9999 20.816 32.9999 20.816 32.9999 20.716C32.9999 20.616 32.9999 20.416 32.9999 20.316C32.9999 20.216 32.9999 20.0159 32.9999 19.9159V19.816C32.9999 19.716 32.9999 19.616 32.9999 19.616C32.9999 19.116 32.9999 18.716 32.9999 18.216C32.9999 17.916 32.9999 17.616 32.9999 17.216V17.116C32.9999 16.616 32.9999 16.116 32.9999 15.716C32.9999 15.416 33 15.016 32.9 14.716C32.8 14.116 32.6999 13.5159 32.4999 12.9159C32.4999 12.9159 32.4999 12.916 32.4999 12.816C32.2999 12.316 32.2 11.816 31.9 11.316C31.8 11.116 31.7 10.916 31.6 10.716C31.5 10.616 31.4999 10.5159 31.4999 10.4159C31.3999 10.3159 31.4 10.216 31.3 10.116C31.2 9.91595 31.0999 9.71595 30.9999 9.61595C30.8999 9.51595 30.9 9.41597 30.8 9.31597L30.6 9.11595C30.4 8.91595 30.1999 8.61594 29.9999 8.41594C29.7999 8.21594 29.5 7.91595 29.3 7.61595C29.2 7.51595 29.0999 7.41597 28.9999 7.31597C28.8999 7.21597 28.7 7.11594 28.6 6.91594L28.4999 6.81597C28.2999 6.71597 28.1 6.51594 27.9 6.41594C27.7 6.31594 27.5 6.21595 27.3 6.11595L26.8 5.81597C26.5 5.61597 26.1 5.51597 25.7 5.31597C25.3 5.21597 24.8999 5.11598 24.4999 5.01598C24.2999 5.01598 24.1 4.91594 23.9 4.91594C23.9 4.91594 23.8 4.91597 23.7 4.81597C23.6 4.81597 23.4999 4.81597 23.4999 4.81597C23.3999 4.81597 23.4 4.81597 23.3 4.81597C22.8 4.71597 22.3 4.81597 21.9 4.81597C21.8 4.81597 21.6999 4.81597 21.4999 4.81597C21.3999 4.81597 21.3 4.81597 21.1 4.81597C21 4.81597 21 4.81597 20.9 4.81597C20.8 4.81597 20.7 4.81597 20.6 4.81597C20.5 4.81597 20.4 4.81597 20.3 4.81597C20.1 4.81597 19.9 4.81594 19.8 4.91594C19.7 4.91594 19.7 4.91594 19.6 4.91594C19.5 4.91594 19.3 4.91598 19.2 5.01598C19 5.11598 18.6999 5.11595 18.4999 5.11595C18.2999 5.11595 18.2 5.21599 18.1 5.21599C18 5.21599 17.9 5.31597 17.8 5.31597C17.7 5.41597 17.5 5.51598 17.3 5.51598C17.2 5.61598 17.0999 5.71599 16.9999 5.71599C16.7999 5.71599 16.7 5.81594 16.6 5.91594C16.5 6.01594 16.4 6.11599 16.2 6.21599C16.1 6.21599 16 6.31594 15.9 6.41594C15.8 6.51594 15.7 6.61595 15.6 6.61595H15.4999C15.3999 6.71595 15.1999 6.81598 14.9999 7.01598C14.8999 7.11598 14.7 7.31594 14.6 7.41594C14.5 7.51594 14.4 7.61599 14.3 7.71599C14.2 7.81599 14.2 7.91598 14.1 8.01598C14 8.11598 14 8.21599 13.9 8.21599L13.8 8.31597C13.8 8.41597 13.7 8.51595 13.6 8.61595C13.5 8.61595 13.5 8.71597 13.4 8.81597C13.2 9.21597 13 9.51597 12.8 9.81597L12.7 9.91594L12.6 10.016C12.6 10.116 12.4999 10.216 12.4999 10.316C12.4999 10.416 12.4 10.516 12.3 10.616C12.3 10.716 12.2 10.8159 12.2 10.9159C12.1 11.1159 12 11.316 11.9 11.516C11.9 11.516 11.9 11.616 11.8 11.616C11.7 11.716 11.7 11.8159 11.7 11.9159C11.6 12.1159 11.5999 12.416 11.4999 12.616C11.3999 12.816 11.4 13.016 11.3 13.216C11.3 13.316 11.2 13.416 11.2 13.516C11.2 13.616 11.1 13.8159 11.1 13.9159V14.016C11.2 14.116 11.1 14.116 11.1 14.216C11.1 14.316 11.1 14.3159 11.1 14.4159C11.1 14.5159 11.1 14.616 11.1 14.716C11.1 14.816 11.1 14.8159 11.1 14.9159V15.016C11.1 15.116 11.1 15.116 11.1 15.216C11.1 15.316 11 15.3159 11.1 15.4159C11.1 15.6159 11.0999 15.616 10.9999 16.016C10.9999 16.016 11 16.016 10.9 16.116C10.9 16.116 10.8 16.116 10.9 16.216C10.9 16.216 10.8999 16.216 10.9999 16.216C10.9999 16.216 11 16.216 10.9 16.216C10.9 16.316 10.8 16.316 10.7 16.316C10.6 16.416 10.6 16.316 10.6 16.316C10.6 16.416 10.6 16.516 10.6 16.616C10.3 17.416 10.3 17.5159 10.2 17.4159C10.1 17.4159 10.2 17.4159 10.2 17.4159C10.1 17.4159 10.1 17.4159 10.2 17.4159C10.1 17.5159 10.1 17.4159 10.2 17.4159Z" fill="#333333"/>
<path d="M5.90002 44.616C6.00002 44.716 6.00002 44.716 5.90002 44.816C5.90002 44.816 5.90002 44.816 5.90002 44.916C5.90002 44.916 5.90005 45.016 5.80005 44.916C5.80005 44.916 5.80001 44.916 5.70001 45.016C5.70001 45.016 5.70001 45.016 5.70001 44.916C5.70001 44.916 5.70005 44.816 5.80005 44.816C5.70005 44.916 5.70004 44.916 5.60004 44.916C5.60004 44.816 5.70004 44.716 5.60004 44.616C5.60004 44.616 5.60004 44.616 5.60004 44.716C5.60004 44.816 5.50002 44.816 5.40002 44.916C5.40002 44.916 5.30005 44.916 5.30005 44.816C5.30005 44.716 5.40005 44.716 5.30005 44.616C5.30005 44.616 5.20001 44.716 5.20001 44.616C5.20001 44.516 5.10004 44.516 5.10004 44.416C5.10004 44.316 5.1 44.316 5 44.216C5 44.116 5 44.016 5 43.916C5 43.816 5 43.816 5 43.716V43.616V43.516C5 43.316 5 43.216 5 43.016C5 42.916 5 42.716 5 42.616C5 42.416 5 42.116 5 41.916C5 41.716 5 41.516 5 41.316C5 41.016 5 40.716 5 40.516C5 40.216 5 39.916 5 39.616C5 39.116 5 38.616 5 38.116C5 38.016 5 37.916 5 37.816C5 37.616 5 37.316 5 37.116C5 36.216 5 35.316 5 34.416C5 33.916 5 33.416 5 32.916C5 31.916 5 30.916 5 29.816C5 29.116 5 28.416 5 27.816C5 27.116 5 26.516 5 25.816C5 25.216 5 24.716 5 24.016C5 23.716 5.10001 23.416 5.20001 23.216C5.40001 22.816 5.70004 22.516 6.10004 22.316C6.30004 22.216 6.50001 22.116 6.70001 22.116C6.80001 22.116 6.9 22.116 7 22.116H7.20001H9.10004H12.1C12.2 22.116 12.5 22.116 12.6 22.116C13 22.116 13.5 22.116 13.9 22.116C14 22.116 14.2 22.116 14.3 22.116C15.3 22.116 16.3 22.116 17.3 22.116C17.5 22.116 17.7 22.116 17.9 22.116C18.2 22.116 18.6 22.116 18.9 22.116C19.1 22.116 19.3 22.116 19.5 22.116C19.7 22.116 19.9 22.116 20.1 22.116C20.3 22.116 20.5 22.116 20.7 22.116C21 22.116 21.4 22.116 21.7 22.116C22.8 22.116 23.9 22.116 24.9 22.116H27.5H33.3C33.6 22.116 33.8 22.116 34.1 22.116C34.3 22.116 34.6 22.116 34.8 22.116H37.3C38.1 22.116 38.8 22.716 39.1 23.516C39.2 23.716 39.2 23.916 39.2 24.116V24.416V25.016V26.516C39.2 26.816 39.2 27.216 39.2 27.516C39.2 27.716 39.2 28.016 39.2 28.216C39.2 28.816 39.2 29.516 39.2 30.116C39.2 30.516 39.2 30.916 39.2 31.316C39.2 32.016 39.2 32.616 39.2 33.316C39.2 33.916 39.2 34.616 39.2 35.216C39.2 35.916 39.2 36.616 39.2 37.316C39.2 37.816 39.2 38.216 39.2 38.716C39.2 39.816 39.2 40.916 39.2 42.016V43.316V44.016C39.2 44.416 39 44.816 38.8 45.216C38.5 45.616 38.1 45.816 37.6 45.916C37.5 45.916 37.3 45.916 37.3 45.916H37.1H36.7H35.2C33.8 45.916 32.3 45.916 30.9 45.916C28.5 45.916 26.1 45.916 23.7 45.916C23 45.916 22.3 45.916 21.6 45.916C21.1 45.916 20.5 45.916 20 45.916C19.8 45.916 19.6 45.916 19.4 45.916C19.2 45.916 18.9 45.916 18.7 45.916C18.4 45.916 18.1 45.916 17.7 45.916C17.5 45.916 17.2 45.916 17 45.916C15.7 45.916 14.4 45.916 13 45.916C12.7 45.916 12.3 45.916 12 45.916H11.7H11.5H11.4H10C9.8 45.916 9.7 45.816 9.5 45.716L9.40002 45.616C9.30002 45.616 9.30005 45.516 9.30005 45.516C9.30005 45.416 9.40002 45.316 9.40002 45.216C9.40002 45.116 9.5 45.116 9.5 45.116C9.5 45.016 9.4 45.016 9.5 44.916C9.5 44.916 9.50002 44.816 9.40002 44.816C9.40002 44.716 9.4 44.716 9.5 44.716H9.60004H9.70001C9.80001 44.716 9.80002 44.616 9.90002 44.616C10.1 44.516 10.1 44.516 10.3 44.516H10.4C10.6 44.516 10.8 44.516 11.1 44.416C11.1 44.416 11.1 44.416 11.2 44.416C11.3 44.416 11.5 44.416 11.6 44.416C11.6 44.416 12.1 44.416 12.5 44.416C12.6 44.416 12.7 44.416 12.9 44.416C13.1 44.416 13.3 44.416 13.4 44.416C14.5 44.416 15.7 44.416 16.8 44.416H19.1H19.3C20.5 44.416 21.7 44.416 22.9 44.416C23.8 44.416 24.7 44.416 25.6 44.416H30.4H30.5C31.9 44.416 33.2 44.416 34.6 44.416C35.2 44.416 35.8 44.416 36.4 44.416H37.3H37.5C37.5 44.416 37.5 44.416 37.6 44.416L37.7 44.316V43.516V42.616V41.816V39.416V36.616C37.7 36.216 37.7 35.816 37.7 35.416C37.7 34.916 37.7 34.416 37.7 33.916C37.7 33.816 37.7 33.616 37.7 33.516C37.7 32.916 37.7 32.316 37.7 31.716V29.916V28.516V25.316C37.7 24.816 37.7 23.916 37.7 24.116C37.7 24.116 37.6 24.116 37.6 24.016H37C36.4 24.016 35.8 24.016 35.2 24.016C35 24.016 34.9 24.016 34.7 24.016C34.5 24.016 34.3 24.016 34 24.016C33.9 24.016 33.7 24.016 33.6 24.016C32.3 24.016 31 24.016 29.7 24.016C29.4 24.016 29.1 24.016 28.7 24.016H27.8H27.3C27 24.016 26.8 24.016 26.5 24.016C26.2 24.016 25.9 24.016 25.7 24.016C25.2 24.016 24.8 24.016 24.3 24.016C24.1 24.016 23.9 24.016 23.7 24.016C23.3 24.016 23 24.016 22.6 24.016C21.9 24.016 21.2 24.016 20.6 24.016C20.2 24.016 19.8 24.016 19.4 24.016C19.1 24.016 18.8 24.116 18.6 24.016H18.5C18 24.116 17.5 24.016 17 24.016H16.9C16.6 24.116 16.2 24.016 15.9 24.016C15.5 24.016 15 24.016 14.5 24.016C14.1 24.016 13.6 24.116 13.2 24.016C12.9 24.016 12.6 24.016 12.3 24.016C12 24.016 11.6 24.016 11.3 24.016C11.2 24.016 11.2 24.016 11.1 24.016C10.6 24.016 10 24.016 9.5 24.016C9 24.016 8.5 24.016 8 24.016C7.8 24.016 7.6 24.016 7.5 24.016C7.4 24.016 7.30005 24.016 7.30005 24.016C7.30005 24.016 7.30001 24.116 7.20001 24.116C7.20001 24.116 7.20001 24.116 7.20001 24.216C7.20001 24.316 7.20001 24.516 7.20001 24.616C7.20001 24.716 7.20001 24.816 7.20001 24.916C7.20001 25.216 7.30001 25.516 7.20001 25.816C7.20001 26.016 7.20001 26.316 7.20001 26.516C7.30001 27.616 7.20001 28.616 7.20001 29.716C7.20001 29.816 7.20001 30.016 7.20001 30.116C7.20001 30.216 7.20001 30.316 7.20001 30.416C7.30001 30.616 7.20001 31.016 7.20001 31.216C7.20001 31.516 7.20001 31.816 7.20001 32.216C7.20001 32.516 7.20001 32.816 7.20001 33.116C7.20001 33.716 7.20001 34.216 7.20001 34.816C7.20001 34.916 7.20001 35.116 7.20001 35.216C7.20001 35.516 7.20001 35.816 7.20001 36.116C7.20001 36.116 7.20001 36.116 7.20001 36.216C7.10001 36.916 7.20001 37.516 7.20001 38.216C7.20001 38.816 7.20001 39.416 7.20001 40.016C7.20001 40.316 7.20001 40.616 7.20001 40.916C7.20001 41.216 7.20001 41.616 7.20001 42.016C7.20001 42.116 7.20001 42.116 7.20001 42.116C7.30001 42.216 7.30001 42.216 7.20001 42.316C7.20001 42.416 7.20001 42.416 7.20001 42.516C7.20001 42.616 7.30001 42.716 7.20001 42.816C7.20001 42.916 7.20001 42.916 7.20001 43.016V43.116C7.20001 43.216 7.20001 43.216 7.20001 43.316C7.20001 43.416 7.10001 43.416 7.20001 43.516C7.20001 43.716 7.20004 43.916 7.10004 44.116C7.10004 44.116 7.1 44.216 7 44.216C7 44.216 6.9 44.216 7 44.316C7 44.316 7.00004 44.316 7.10004 44.316C7.10004 44.316 7.1 44.316 7 44.316C7 44.416 6.90005 44.416 6.80005 44.416C6.70005 44.516 6.70001 44.416 6.70001 44.416C6.70001 44.516 6.70001 44.616 6.70001 44.716C6.00001 44.616 6.00002 44.616 5.90002 44.616C5.80002 44.616 5.80002 44.616 5.90002 44.616C5.80002 44.616 5.80002 44.516 5.90002 44.616C5.80002 44.616 5.80002 44.616 5.90002 44.616Z" fill="#333333"/>
</svg>
