<svg xmlns="http://www.w3.org/2000/svg" width="48" height="36" viewBox="0 0 48 36">
    <g fill="none" fill-rule="evenodd">
        <g>
            <g transform="translate(-20 -1467) translate(20 1467)">
                <rect width="47" height="35" x=".5" y=".5" stroke="#111" stroke-opacity=".08" rx="4"/>
                <path fill="#16267C" d="M23.532 16.197c-.017 1.393 1.244 2.17 2.193 2.632.976.474 1.303.778 1.3 1.202-.008.65-.78.936-1.5.947-1.259.02-1.99-.34-2.573-.611l-.453 2.12c.585.267 1.665.501 2.785.513 2.632 0 4.353-1.298 4.361-3.31.011-2.552-3.534-2.693-3.509-3.833.008-.347.339-.716 1.063-.81.358-.047 1.348-.083 2.468.433l.441-2.051C29.505 13.21 28.73 13 27.764 13c-2.476 0-4.218 1.315-4.232 3.197zm10.808-3.02c-.48 0-.886.28-1.066.71l-3.759 8.962h2.63l.523-1.445h3.213l.302 1.445H38.5l-2.021-9.672H34.34zm.367 2.613l.76 3.632h-2.078l1.318-3.632zm-14.362-2.613l-2.072 9.672h2.505l2.071-9.672h-2.504zm-3.706 0l-2.607 6.583-1.055-5.597c-.124-.625-.612-.986-1.156-.986H7.56l-.059.28c.875.19 1.87.497 2.47.823.37.2.476.375.597.85l1.997 7.719h2.647l4.059-9.672h-2.631z"/>
            </g>
        </g>
    </g>
</svg>
